<svg width="48" height="48" viewBox="0 0 48 48" fill="none" xmlns="http://www.w3.org/2000/svg">
<path d="M27.75 15C28.9926 15 30 16.0074 30 17.25V30.75C30 31.9926 28.9926 33 27.75 33H8.25C7.00736 33 6 31.9926 6 30.75V17.25C6 16.0074 7.00736 15 8.25 15H27.75Z" fill="white"/>
<path fill-rule="evenodd" clip-rule="evenodd" d="M34.6641 9C35.6641 9 36.6016 9.19531 37.4766 9.58594C38.3516 9.97656 39.125 10.5078 39.7969 11.1797C40.4687 11.8516 40.9922 12.6328 41.3672 13.5234C41.7422 14.4141 41.9531 15.3516 42 16.3359V19.5H45C45.4063 19.5 45.7891 19.5781 46.1484 19.7344C46.5078 19.8906 46.8281 20.1094 47.1094 20.3906C47.3906 20.6719 47.6094 20.9922 47.7656 21.3516C47.9219 21.7109 48 22.0937 48 22.5V25.5C48 26.3281 47.7031 27.0391 47.1094 27.6328C46.5313 28.2109 45.8281 28.5 45 28.5H42V31.6641C42 32.6484 41.8047 33.5859 41.4141 34.4766C41.0234 35.3672 40.4922 36.1406 39.8203 36.7969C39.1484 37.4531 38.3672 37.9844 37.4766 38.3906C36.5859 38.7969 35.6484 39 34.6641 39H7.33594C6.35156 39 5.41406 38.8047 4.52344 38.4141C3.63281 38.0234 2.85938 37.4922 2.20312 36.8203C1.54688 36.1484 1.01563 35.3672 0.609375 34.4766C0.203125 33.5859 0 32.6484 0 31.6641V16.3359C0 15.3516 0.195313 14.4141 0.585938 13.5234C0.976562 12.6328 1.50781 11.8594 2.17969 11.2031C2.85156 10.5469 3.63281 10.0156 4.52344 9.60938C5.41406 9.20312 6.35156 9 7.33594 9H34.6641ZM7.5 12C6.89062 12 6.3125 12.1172 5.76562 12.3516C5.21875 12.5859 4.74219 12.9062 4.33594 13.3125C3.92969 13.7188 3.60156 14.2031 3.35156 14.7656C3.13291 15.2576 3.01547 15.7615 3 16.2773V31.5C3 32.1094 3.11719 32.6875 3.35156 33.2344C3.58594 33.7812 3.90625 34.2578 4.3125 34.6641C4.71875 35.0703 5.20313 35.3984 5.76562 35.6484C6.25758 35.8671 6.76148 35.9845 7.27734 36H34.5C35.1094 36 35.6875 35.8828 36.2344 35.6484C36.7813 35.4141 37.2578 35.0938 37.6641 34.6875C38.0703 34.2812 38.3984 33.7969 38.6484 33.2344C38.8671 32.7424 38.9845 32.2385 39 31.7227V16.5C39 15.8906 38.8828 15.3125 38.6484 14.7656C38.4141 14.2188 38.0937 13.7422 37.6875 13.3359C37.2813 12.9297 36.7969 12.6016 36.2344 12.3516C35.7424 12.1329 35.2385 12.0155 34.7227 12H7.5Z" fill="white"/>
</svg>
