<svg width="34" height="34" viewBox="0 0 34 34" fill="none" xmlns="http://www.w3.org/2000/svg">
<path fill-rule="evenodd" clip-rule="evenodd" d="M16.7324 0C25.9735 0 33.4648 7.49136 33.4648 16.7324C33.4648 25.9735 25.9735 33.4648 16.7324 33.4648C7.49136 33.4648 0 25.9735 0 16.7324C0 7.49136 7.49136 0 16.7324 0ZM16.7324 2.09155C8.64649 2.09155 2.09155 8.64649 2.09155 16.7324C2.09155 24.8183 8.64649 31.3733 16.7324 31.3733C24.8183 31.3733 31.3733 24.8183 31.3733 16.7324C31.3733 8.64649 24.8183 2.09155 16.7324 2.09155ZM18.4808 10.3597L23.0234 23.1051H19.8861L18.9874 20.2619H14.4611L13.5624 23.1051H10.4414L15.0821 10.3597H18.4808ZM16.7488 12.631H16.6671C16.6453 12.8162 16.618 13.0014 16.5854 13.1866C16.5527 13.3718 16.5091 13.5624 16.4546 13.7585L15.0657 18.056H18.3174L16.9448 13.7748C16.8904 13.5896 16.8522 13.399 16.8305 13.2029C16.8087 13.0068 16.7814 12.8162 16.7488 12.631Z" fill="#107C10"/>
</svg>
