<svg width="34" height="34" viewBox="0 0 34 34" fill="none" xmlns="http://www.w3.org/2000/svg">
<path fill-rule="evenodd" clip-rule="evenodd" d="M16.7324 0C25.9735 0 33.4648 7.49136 33.4648 16.7324C33.4648 25.9735 25.9735 33.4648 16.7324 33.4648C7.49136 33.4648 0 25.9735 0 16.7324C0 7.49136 7.49136 0 16.7324 0ZM16.7324 2.09155C8.64649 2.09155 2.09155 8.64649 2.09155 16.7324C2.09155 24.8183 8.64649 31.3733 16.7324 31.3733C24.8183 31.3733 31.3733 24.8183 31.3733 16.7324C31.3733 8.64649 24.8183 2.09155 16.7324 2.09155ZM21.2 11.2L17.78 15.68L17.7 15.78L17.62 15.68L14.2 11.2H10.8L15.96 17.5L10.5 24.1H13.9L17.62 19.32L17.7 19.22L17.78 19.32L21.5 24.1H24.9L19.44 17.5L24.6 11.2H21.2Z" fill="#0E6DC9"/>
</svg>
