<svg width="34" height="34" viewBox="0 0 34 34" fill="none" xmlns="http://www.w3.org/2000/svg">
<path fill-rule="evenodd" clip-rule="evenodd" d="M16.7324 0C25.9735 0 33.4648 7.49136 33.4648 16.7324C33.4648 25.9735 25.9735 33.4648 16.7324 33.4648C7.49136 33.4648 0 25.9735 0 16.7324C0 7.49136 7.49136 0 16.7324 0ZM16.7324 2.09155C8.64649 2.09155 2.09155 8.64649 2.09155 16.7324C2.09155 24.8183 8.64649 31.3733 16.7324 31.3733C24.8183 31.3733 31.3733 24.8183 31.3733 16.7324C31.3733 8.64649 24.8183 2.09155 16.7324 2.09155ZM17.0263 10.3597C17.5167 10.3597 18.0177 10.4033 18.5301 10.4904C19.053 10.5776 19.532 10.7355 19.968 10.9643C20.4031 11.1822 20.7576 11.4872 21.0295 11.8794C21.3129 12.2607 21.4551 12.7508 21.4551 13.35C21.4551 13.7095 21.384 14.0472 21.2418 14.3631C21.1121 14.6681 20.9323 14.9459 20.7032 15.1964C20.4742 15.4361 20.2075 15.6485 19.9022 15.8337C19.6083 16.008 19.2977 16.1387 18.9714 16.2258V16.2586C19.3845 16.3131 19.7714 16.4219 20.1312 16.5854C20.4909 16.7379 20.8068 16.9448 21.0787 17.2063C21.3516 17.4568 21.5639 17.7619 21.7166 18.1213C21.8682 18.47 21.9446 18.8621 21.9446 19.2978C21.9446 19.9733 21.8138 20.5505 21.5524 21.0299C21.291 21.5092 20.9427 21.9068 20.5066 22.2227C20.0716 22.5278 19.5707 22.7511 19.0038 22.8927C18.4485 23.0343 17.8713 23.1052 17.272 23.1052H12.3862V10.3597H17.0263ZM16.814 17.6312H15.2453V20.9972H16.814C17.0869 20.9972 17.3484 20.9646 17.5983 20.8992C17.8598 20.8338 18.0888 20.7303 18.2843 20.5887C18.481 20.4471 18.6389 20.2673 18.7591 20.0495C18.8784 19.8316 18.938 19.5701 18.938 19.2652C18.938 18.9601 18.8784 18.7041 18.7591 18.4972C18.6389 18.2793 18.4757 18.1104 18.2687 17.9906C18.0721 17.8599 17.843 17.7673 17.5816 17.7128C17.3316 17.6583 17.0754 17.6312 16.814 17.6312ZM16.3235 12.4676H15.2453V15.4906H16.5034C16.7648 15.4906 17.0106 15.4634 17.2386 15.4089C17.4791 15.3435 17.6799 15.2454 17.843 15.1147C18.0177 14.984 18.1536 14.8152 18.2519 14.6082C18.3607 14.4012 18.4151 14.1561 18.4151 13.8728C18.4151 13.5788 18.3502 13.3391 18.2195 13.1539C18.0992 12.9687 17.9361 12.8271 17.729 12.7291C17.5335 12.631 17.3097 12.5656 17.0587 12.533C16.8088 12.4894 16.564 12.4676 16.3235 12.4676Z" fill="#E51D23"/>
</svg>
