<svg width="60" height="96" viewBox="0 0 60 96" fill="none" xmlns="http://www.w3.org/2000/svg">
<g filter="url(#filter0_d_lb)">
<path fill-rule="evenodd" clip-rule="evenodd" d="M16.5265 59.25C15.89 59.25 15.277 59.1203 14.6876 58.8621C14.11 58.6039 13.6031 58.2396 13.167 57.7705C12.7898 57.3589 12.501 56.8943 12.3006 56.3779C12.1002 55.8614 12 55.3213 12 54.7574C12 54.5578 12.0059 54.4101 12.0177 54.3165L12.778 46.0531C12.8841 44.9367 13.1965 43.9264 13.7151 43.022C14.2338 42.1176 14.9116 41.4128 15.7485 40.9076C18.3065 39.3459 21.2299 38.2656 24.5186 37.6657C27.8193 37.0556 31.0845 36.75 34.3144 36.75C35.9529 36.75 37.6327 36.8267 39.3537 36.9789C39.9549 37.0263 40.5325 37.1909 41.0865 37.4728C41.6523 37.7423 42.1651 38.1066 42.6247 38.5644L45.4009 41.3835C46.2378 42.218 46.8802 43.1866 47.3281 44.2906C47.776 45.3957 48 46.5346 48 47.7096C48 48.7786 47.8174 49.8059 47.4519 50.7926L45.7191 55.5321C45.3184 56.6361 44.6288 57.5348 43.6503 58.2283C42.6837 58.9094 41.6051 59.25 40.4146 59.25H16.5265ZM22.0786 54.7394C21.7721 54.7394 21.5069 54.6278 21.2829 54.4045C21.059 54.1812 20.947 53.9173 20.947 53.6118V44.5906C20.947 44.285 21.059 44.0211 21.2829 43.7978C21.5069 43.5745 21.7721 43.4629 22.0786 43.4629C22.3851 43.4629 22.6503 43.5745 22.8743 43.7978C23.0982 44.0211 23.2102 44.285 23.2102 44.5906V52.4841H26.6051C26.9116 52.4841 27.1768 52.5957 27.4008 52.819C27.6247 53.0423 27.7368 53.3062 27.7368 53.6118C27.7368 53.9173 27.6247 54.1812 27.4008 54.4045C27.1768 54.6278 26.9116 54.7394 26.6051 54.7394H22.0786ZM33.5364 54.7394H31.1317C30.8252 54.7394 30.56 54.6278 30.336 54.4045C30.1121 54.1812 30 53.9173 30 53.6118V44.5906C30 44.285 30.1121 44.0211 30.336 43.7978C30.56 43.5745 30.8252 43.4629 31.1317 43.4629H33.3949C34.9274 43.4629 35.9646 43.8271 36.5069 44.5556C37.0492 45.2717 37.3203 46.0351 37.3203 46.8458C37.3203 47.5856 37.1199 48.2317 36.7191 48.7843C37.5206 49.4417 37.9215 50.3224 37.9215 51.4264C37.9215 52.3544 37.6327 53.1178 37.0551 53.7177C36.6307 54.1406 36.1297 54.4169 35.552 54.5454C34.9862 54.6751 34.3792 54.7394 33.7309 54.7394H33.5364ZM33.3949 47.9735C33.8311 47.9735 34.2142 47.8968 34.5442 47.7446C34.8861 47.58 35.0571 47.28 35.0571 46.8459C35.0571 46.6113 35.0275 46.4173 34.9686 46.264C34.9215 46.1118 34.7742 45.9821 34.5266 45.8772C34.2908 45.7712 33.9136 45.7182 33.3949 45.7182H32.2633V47.9735H33.3949ZM33.3949 52.4841C33.9018 52.4841 34.3261 52.4661 34.668 52.4311C35.0216 52.3837 35.281 52.2789 35.446 52.1142C35.5875 51.9733 35.6582 51.7444 35.6582 51.4264C35.6582 51.0858 35.5757 50.8276 35.4106 50.6517C35.2456 50.4758 35.0747 50.3641 34.8978 50.3168C34.7211 50.2581 34.5973 50.2288 34.5266 50.2288H32.2633V52.4841H33.3949Z" fill="white"/>
</g>
<defs>
<filter id="filter0_d_lb" x="4.5" y="26.25" width="51" height="51" filterUnits="userSpaceOnUse" color-interpolation-filters="sRGB">
<feFlood flood-opacity="0" result="BackgroundImageFix"/>
<feColorMatrix in="SourceAlpha" type="matrix" values="0 0 0 0 0 0 0 0 0 0 0 0 0 0 0 0 0 0 127 0" result="hardAlpha"/>
<feOffset dy="3.75"/>
<feGaussianBlur stdDeviation="3.75"/>
<feComposite in2="hardAlpha" operator="out"/>
<feColorMatrix type="matrix" values="0 0 0 0 0 0 0 0 0 0 0 0 0 0 0 0 0 0 0.13 0"/>
<feBlend mode="normal" in2="BackgroundImageFix" result="effect1"/>
<feBlend mode="normal" in="SourceGraphic" in2="effect1" result="shape"/>
</filter>
</defs>
</svg>
