<svg width="60" height="96" viewBox="0 0 60 96" fill="none" xmlns="http://www.w3.org/2000/svg">
<g filter="url(#filter0_d_rb)">
<path fill-rule="evenodd" clip-rule="evenodd" d="M19.5855 59.25C18.4067 59.25 17.3281 58.9094 16.3497 58.2283C15.3831 57.5472 14.6935 56.6485 14.281 55.5321L12.5481 50.7926C12.1827 49.8059 12 48.7786 12 47.7096C12 46.5346 12.224 45.3957 12.6719 44.2906C13.1198 43.1866 13.7623 42.2123 14.5992 41.3666L17.3753 38.5644C17.835 38.1066 18.3419 37.7423 18.8959 37.4728C19.4617 37.1909 20.0452 37.0263 20.6464 36.9789C22.3674 36.8267 24.0472 36.75 25.6857 36.75C28.9156 36.75 32.1749 37.0556 35.4637 37.6657C38.7643 38.2656 41.6935 39.3459 44.2516 40.9076C45.0884 41.4128 45.7663 42.1176 46.2849 43.022C46.8036 43.9264 47.116 44.9367 47.2221 46.0531L47.9823 54.3165C47.9941 54.4101 48 54.5578 48 54.7574C48 55.3213 47.8999 55.8614 47.6994 56.3779C47.499 56.8943 47.2102 57.3589 46.8331 57.7705C46.3969 58.2396 45.8842 58.6039 45.2947 58.8621C44.7171 59.1203 44.1101 59.25 43.4735 59.25H19.5855ZM22.0786 54.7394C21.7721 54.7394 21.5069 54.6278 21.2829 54.4045C21.059 54.1812 20.947 53.9173 20.947 53.6118V44.5906C20.947 44.285 21.059 44.0211 21.2829 43.7978C21.5069 43.5745 21.7721 43.4629 22.0786 43.4629L22.8212 43.4449L23.8291 43.4279C24.949 43.4279 25.9451 43.5272 26.8173 43.7268C27.6896 43.9151 28.4087 44.285 28.9745 44.8375C29.6582 45.4836 30 46.3407 30 47.4097C30 48.8666 29.3929 49.9063 28.1788 50.5288L29.8055 52.978C29.9352 53.1776 30 53.3885 30 53.6118C30 53.8001 29.9528 53.976 29.8586 54.1406C29.7761 54.3053 29.6582 54.4394 29.5049 54.5454C29.3045 54.6751 29.0923 54.7394 28.8684 54.7394C28.6798 54.7394 28.503 54.6988 28.3379 54.6165C28.1729 54.5218 28.0373 54.3932 27.9313 54.2286L25.8802 51.1805C25.22 51.2741 24.3301 51.3328 23.2102 51.3565V53.6118C23.2102 53.9173 23.0982 54.1812 22.8743 54.4045C22.6503 54.6278 22.3851 54.7394 22.0786 54.7394ZM35.7996 54.7394H33.3949C33.0885 54.7394 32.8232 54.6278 32.5993 54.4045C32.3753 54.1812 32.2633 53.9173 32.2633 53.6118V44.5906C32.2633 44.285 32.3753 44.0211 32.5993 43.7978C32.8232 43.5745 33.0885 43.4629 33.3949 43.4629H35.6582C37.1906 43.4629 38.2279 43.8271 38.7702 44.5556C39.3125 45.2717 39.5836 46.0351 39.5836 46.8458C39.5836 47.5856 39.3832 48.2317 38.9824 48.7843C39.7839 49.4417 40.1847 50.3224 40.1847 51.4264C40.1847 52.3544 39.8959 53.1178 39.3183 53.7177C38.894 54.1406 38.393 54.4169 37.8153 54.5454C37.2495 54.6751 36.6425 54.7394 35.9942 54.7394H35.7996ZM23.2102 49.1011C24.3301 49.0775 25.2082 49.0188 25.8448 48.9252C26.4931 48.8192 26.9705 48.649 27.2771 48.4144C27.5835 48.1787 27.7368 47.8438 27.7368 47.4097C27.7368 46.9868 27.6247 46.6643 27.4008 46.441C26.8822 45.9358 25.7092 45.6832 23.8822 45.6832L23.2102 45.7002V49.1011ZM35.6582 47.9735C36.0943 47.9735 36.4775 47.8968 36.8075 47.7446C37.1493 47.58 37.3203 47.28 37.3203 46.8459C37.3203 46.6113 37.2908 46.4173 37.2318 46.264C37.1848 46.1118 37.0374 45.9821 36.7898 45.8772C36.5541 45.7712 36.1768 45.7182 35.6582 45.7182H34.5266V47.9735H35.6582ZM35.6582 52.4841C36.1768 52.4841 36.6071 52.4661 36.9489 52.4311C37.2908 52.3837 37.5443 52.2789 37.7093 52.1142C37.8507 51.9733 37.9215 51.7444 37.9215 51.4264C37.9215 51.0858 37.839 50.8276 37.6739 50.6517C37.5089 50.4758 37.338 50.3641 37.1611 50.3168C36.9844 50.2581 36.8605 50.2288 36.7898 50.2288H34.5266V52.4841H35.6582Z" fill="white"/>
</g>
<defs>
<filter id="filter0_d_rb" x="4.5" y="26.25" width="51" height="51" filterUnits="userSpaceOnUse" color-interpolation-filters="sRGB">
<feFlood flood-opacity="0" result="BackgroundImageFix"/>
<feColorMatrix in="SourceAlpha" type="matrix" values="0 0 0 0 0 0 0 0 0 0 0 0 0 0 0 0 0 0 127 0" result="hardAlpha"/>
<feOffset dy="3.75"/>
<feGaussianBlur stdDeviation="3.75"/>
<feComposite in2="hardAlpha" operator="out"/>
<feColorMatrix type="matrix" values="0 0 0 0 0 0 0 0 0 0 0 0 0 0 0 0 0 0 0.13 0"/>
<feBlend mode="normal" in2="BackgroundImageFix" result="effect1"/>
<feBlend mode="normal" in="SourceGraphic" in2="effect1" result="shape"/>
</filter>
</defs>
</svg>
