<svg width="48" height="48" viewBox="0 0 48 48" fill="none" xmlns="http://www.w3.org/2000/svg">
<path d="M30.8063 6C30.3422 6.82399 29.9254 7.6764 29.5466 8.54775C25.9475 8.0079 22.2822 8.0079 18.6737 8.54775C18.3043 7.6764 17.8781 6.82399 17.414 6C14.0328 6.57776 10.7368 7.59116 7.6113 9.0213C1.41713 18.1989 -0.259272 27.1397 0.574203 35.9574C4.20165 38.6377 8.26482 40.6835 12.5931 41.9905C13.5687 40.6835 14.4306 39.2912 15.1693 37.8421C13.7676 37.3212 12.4132 36.6677 11.1156 35.91C11.4566 35.6638 11.7881 35.4081 12.1101 35.1618C19.7155 38.7419 28.5237 38.7419 36.1385 35.1618C36.4605 35.427 36.792 35.6827 37.133 35.91C35.8355 36.6772 34.4811 37.3212 33.0699 37.8516C33.8086 39.3007 34.6705 40.693 35.646 42C39.9743 40.693 44.0374 38.6566 47.6651 35.9763C48.6499 25.7474 45.9791 16.8824 40.6088 9.03079C37.4929 7.60065 34.1969 6.58721 30.8157 6.01894L30.8063 6ZM16.2301 30.5304C13.8907 30.5304 11.9491 28.4088 11.9491 25.7853C11.9491 23.1618 13.8149 21.0308 16.2206 21.0308C18.6263 21.0308 20.5395 23.1713 20.5016 25.7853C20.4637 28.3994 18.6168 30.5304 16.2301 30.5304ZM32.0091 30.5304C29.6602 30.5304 27.7376 28.4088 27.7376 25.7853C27.7376 23.1618 29.6034 21.0308 32.0091 21.0308C34.4148 21.0308 36.3185 23.1713 36.2806 25.7853C36.2427 28.3994 34.3958 30.5304 32.0091 30.5304Z" fill="white"/>
</svg>
