<svg width="48" height="48" viewBox="0 0 48 48" fill="none" xmlns="http://www.w3.org/2000/svg">
<g clip-path="url(#clip0_80_9862)">
<path d="M42.719 35.2279C42.0884 35.5583 41.438 35.8494 40.7715 36.0995C38.6488 36.8934 36.4003 37.2982 34.134 37.2946C25.3848 37.2946 17.7632 31.276 17.7632 23.5531C17.7746 22.5179 18.0621 21.5046 18.5959 20.6176C19.1298 19.7307 19.8907 19.0023 20.8001 18.5076C12.8877 18.8394 10.8536 27.0865 10.8536 31.9179C10.8536 45.5762 23.4427 46.9623 26.1553 46.9623C27.8504 46.8962 29.53 46.6129 31.153 46.1195C31.234 46.0926 31.3148 46.0653 31.3954 46.0376C36.4893 44.2751 40.8314 40.8308 43.7069 36.2717C43.7937 36.1323 43.8318 35.968 43.8152 35.8046C43.7987 35.6413 43.7286 35.488 43.6157 35.3687C43.5028 35.2494 43.3536 35.1709 43.1914 35.1454C43.0291 35.12 42.863 35.149 42.719 35.2279Z" fill="url(#paint0_linear_80_9862)"/>
<path opacity="0.35" d="M42.719 35.2279C42.0884 35.5583 41.438 35.8494 40.7715 36.0995C38.6488 36.8934 36.4003 37.2982 34.134 37.2946C25.3848 37.2946 17.7632 31.276 17.7632 23.5531C17.7746 22.5179 18.0621 21.5046 18.5959 20.6176C19.1298 19.7307 19.8907 19.0023 20.8001 18.5076C12.8877 18.8394 10.8536 27.0865 10.8536 31.9179C10.8536 45.5762 23.4427 46.9623 26.1553 46.9623C27.8504 46.8962 29.53 46.6129 31.153 46.1195C31.234 46.0926 31.3148 46.0653 31.3954 46.0376C36.4893 44.2751 40.8314 40.8308 43.7069 36.2717C43.7937 36.1323 43.8318 35.968 43.8152 35.8046C43.7987 35.6413 43.7286 35.488 43.6157 35.3687C43.5028 35.2494 43.3536 35.1709 43.1914 35.1454C43.0291 35.12 42.863 35.149 42.719 35.2279Z" fill="url(#paint1_radial_80_9862)"/>
<path d="M19.545 44.6351C17.8954 43.6098 16.4664 42.2663 15.3415 40.683C14.0608 38.9245 13.1799 36.9075 12.7604 34.7729C12.3409 32.6384 12.3929 30.4379 12.9129 28.3256C13.4328 26.2133 14.4082 24.2401 15.7706 22.5442C17.133 20.8483 18.8496 19.4706 20.8002 18.5076C21.684 18.0307 22.6702 17.7746 23.6744 17.7612C24.5972 17.7674 25.506 17.987 26.3299 18.4027C27.1537 18.8185 27.8702 19.4192 28.4233 20.1578C29.1702 21.1546 29.5818 22.3626 29.5989 23.6081C29.5994 23.5692 34.122 8.89001 14.7985 8.89001C6.68315 8.89001 5.05397e-05 16.5943 5.05397e-05 23.3513C-0.0330049 26.9282 0.732196 30.4674 2.23992 33.7113C4.7029 38.9619 9.00753 43.1259 14.3371 45.4131C19.6667 47.7003 25.6504 47.9517 31.1531 46.1195C29.226 46.7266 27.1902 46.9082 25.186 46.6519C23.1819 46.3957 21.2573 45.7075 19.545 44.6351V44.6351Z" fill="url(#paint2_linear_80_9862)"/>
<path opacity="0.41" d="M19.545 44.6351C17.8954 43.6098 16.4664 42.2663 15.3415 40.683C14.0608 38.9245 13.1799 36.9075 12.7604 34.7729C12.3409 32.6384 12.3929 30.4379 12.9129 28.3256C13.4328 26.2133 14.4082 24.2401 15.7706 22.5442C17.133 20.8483 18.8496 19.4706 20.8002 18.5076C21.684 18.0307 22.6702 17.7746 23.6744 17.7612C24.5972 17.7674 25.506 17.987 26.3299 18.4027C27.1537 18.8185 27.8702 19.4192 28.4233 20.1578C29.1702 21.1546 29.5818 22.3626 29.5989 23.6081C29.5994 23.5692 34.122 8.89001 14.7985 8.89001C6.68315 8.89001 5.05397e-05 16.5943 5.05397e-05 23.3513C-0.0330049 26.9282 0.732196 30.4674 2.23992 33.7113C4.7029 38.9619 9.00753 43.1259 14.3371 45.4131C19.6667 47.7003 25.6504 47.9517 31.1531 46.1195C29.226 46.7266 27.1902 46.9082 25.186 46.6519C23.1819 46.3957 21.2573 45.7075 19.545 44.6351V44.6351Z" fill="url(#paint3_radial_80_9862)"/>
<path d="M28.1615 27.5223C28.0116 27.7163 27.5506 27.9841 27.5506 28.5695C27.5774 28.8462 27.6708 29.1123 27.8228 29.3449C27.9749 29.5776 28.181 29.77 28.4237 29.9056C31.0825 31.7612 36.094 31.5111 36.1074 31.511C38.0783 31.5045 40.0113 30.969 41.7046 29.9603C43.4133 28.9628 44.8315 27.5359 45.8184 25.821C46.8054 24.1062 47.3268 22.1632 47.3309 20.1846C47.3523 17.3416 46.6297 14.5423 45.2348 12.0649C41.3165 4.40704 32.8584 3.12655e-07 23.6619 3.12655e-07C17.4429 -0.00101002 11.4736 2.44666 7.0455 6.81341C2.61745 11.1801 0.0867925 17.1148 0.00109863 23.3332C0.0889881 16.5768 6.80391 11.1209 14.786 11.1209C17.4821 11.1486 20.137 11.7853 22.5524 12.9834C24.9501 14.1739 26.9366 16.0546 28.2563 18.3836C29.1348 20.0692 29.5963 21.9407 29.6023 23.8414C29.5068 25.1862 29.0042 26.47 28.1615 27.5223V27.5223Z" fill="url(#paint4_radial_80_9862)"/>
<path d="M28.1615 27.5223C28.0116 27.7163 27.5506 27.9841 27.5506 28.5695C27.5774 28.8462 27.6708 29.1123 27.8228 29.3449C27.9749 29.5776 28.181 29.77 28.4237 29.9056C31.0825 31.7612 36.094 31.5111 36.1074 31.511C38.0783 31.5045 40.0113 30.969 41.7046 29.9603C43.4133 28.9628 44.8315 27.5359 45.8184 25.821C46.8054 24.1062 47.3268 22.1632 47.3309 20.1846C47.3523 17.3416 46.6297 14.5423 45.2348 12.0649C41.3165 4.40704 32.8584 3.12655e-07 23.6619 3.12655e-07C17.4429 -0.00101002 11.4736 2.44666 7.0455 6.81341C2.61745 11.1801 0.0867925 17.1148 0.00109863 23.3332C0.0889881 16.5768 6.80391 11.1209 14.786 11.1209C17.4821 11.1486 20.137 11.7853 22.5524 12.9834C24.9501 14.1739 26.9366 16.0546 28.2563 18.3836C29.1348 20.0692 29.5963 21.9407 29.6023 23.8414C29.5068 25.1862 29.0042 26.47 28.1615 27.5223V27.5223Z" fill="url(#paint5_radial_80_9862)"/>
</g>
<defs>
<linearGradient id="paint0_linear_80_9862" x1="10.8536" y1="32.735" x2="43.8261" y2="32.735" gradientUnits="userSpaceOnUse">
<stop stop-color="#0C59A4"/>
<stop offset="1" stop-color="#114A8B"/>
</linearGradient>
<radialGradient id="paint1_radial_80_9862" cx="0" cy="0" r="1" gradientUnits="userSpaceOnUse" gradientTransform="translate(29.0655 32.9814) scale(17.6356 16.7727)">
<stop offset="0.71659" stop-opacity="0"/>
<stop offset="0.9459" stop-opacity="0.53"/>
<stop offset="1"/>
</radialGradient>
<linearGradient id="paint2_linear_80_9862" x1="28.2371" y1="18.4306" x2="7.6412" y2="40.8644" gradientUnits="userSpaceOnUse">
<stop stop-color="#1B9DE2"/>
<stop offset="0.16164" stop-color="#1595DF"/>
<stop offset="0.66749" stop-color="#0680D7"/>
<stop offset="1" stop-color="#0078D4"/>
</linearGradient>
<radialGradient id="paint3_radial_80_9862" cx="0" cy="0" r="1" gradientTransform="matrix(3.93086 -26.1895 -21.1037 -3.16736 13.1836 36.731)" gradientUnits="userSpaceOnUse">
<stop offset="0.76293" stop-opacity="0"/>
<stop offset="0.9459" stop-opacity="0.5"/>
<stop offset="1"/>
</radialGradient>
<radialGradient id="paint4_radial_80_9862" cx="0" cy="0" r="1" gradientTransform="matrix(-1.39044 37.4018 79.6595 2.96165 4.6655 8.65388)" gradientUnits="userSpaceOnUse">
<stop stop-color="#35C1F1"/>
<stop offset="0.11079" stop-color="#34C1ED"/>
<stop offset="0.23164" stop-color="#2FC2DF"/>
<stop offset="0.31446" stop-color="#2BC3D2"/>
<stop offset="0.67338" stop-color="#36C752"/>
</radialGradient>
<radialGradient id="paint5_radial_80_9862" cx="0" cy="0" r="1" gradientTransform="matrix(5.05873 17.2712 14.1011 -4.1301 44.8303 14.3428)" gradientUnits="userSpaceOnUse">
<stop stop-color="#66EB6E"/>
<stop offset="1" stop-color="#66EB6E" stop-opacity="0"/>
</radialGradient>
<clipPath id="clip0_80_9862">
<rect width="47.332" height="47.332" fill="white"/>
</clipPath>
</defs>
</svg>
