<svg width="48" height="48" viewBox="0 0 48 48" fill="none" xmlns="http://www.w3.org/2000/svg">
<path fill-rule="evenodd" clip-rule="evenodd" d="M10.5 48C10.0937 48 9.74219 47.8516 9.44531 47.5547C9.14844 47.2578 9 46.9063 9 46.5V23.8594C8.14062 23.6875 7.34375 23.375 6.60938 22.9219C5.875 22.4687 5.24219 21.9062 4.71094 21.2344C4.17969 20.5625 3.76563 19.8281 3.46875 19.0312C3.17187 18.2344 3.01563 17.3906 3 16.5C3 15.625 3.14844 14.7813 3.44531 13.9688C3.74219 13.1562 4.16406 12.4219 4.71094 11.7656C5.25781 11.1094 5.89063 10.5547 6.60938 10.1016C7.32812 9.64844 8.125 9.32812 9 9.14062V1.5C9 1.09375 9.14844 0.742188 9.44531 0.445312C9.74219 0.148437 10.0937 0 10.5 0C10.9063 0 11.2578 0.148437 11.5547 0.445312C11.8516 0.742188 12 1.09375 12 1.5V9.14062C12.8594 9.3125 13.6562 9.625 14.3906 10.0781C15.125 10.5313 15.7578 11.0938 16.2891 11.7656C16.8203 12.4375 17.2344 13.1719 17.5312 13.9688C17.8281 14.7656 17.9844 15.6094 18 16.5C18 17.375 17.8516 18.2187 17.5547 19.0312C17.2578 19.8438 16.8359 20.5781 16.2891 21.2344C15.7422 21.8906 15.1094 22.4453 14.3906 22.8984C13.6719 23.3516 12.875 23.6719 12 23.8594V46.5C12 46.9063 11.8516 47.2578 11.5547 47.5547C11.2578 47.8516 10.9063 48 10.5 48ZM10.5 21C11.1094 21 11.6875 20.8828 12.2344 20.6484C12.7813 20.4141 13.2578 20.0938 13.6641 19.6875C14.0703 19.2812 14.3984 18.7969 14.6484 18.2344C14.8984 17.6719 15.0156 17.0938 15 16.5C15 15.8906 14.8828 15.3125 14.6484 14.7656C14.4141 14.2187 14.0938 13.7422 13.6875 13.3359C13.2812 12.9297 12.7969 12.6016 12.2344 12.3516C11.6719 12.1016 11.0938 11.9844 10.5 12C9.89062 12 9.3125 12.1172 8.76562 12.3516C8.21875 12.5859 7.74219 12.9062 7.33594 13.3125C6.92969 13.7188 6.60156 14.2031 6.35156 14.7656C6.10156 15.3281 5.98437 15.9062 6 16.5C6 17.1094 6.11719 17.6875 6.35156 18.2344C6.58594 18.7813 6.90625 19.2578 7.3125 19.6641C7.71875 20.0703 8.20312 20.3984 8.76562 20.6484C9.32812 20.8984 9.90625 21.0156 10.5 21ZM37.5 0C37.9063 0 38.2578 0.148437 38.5547 0.445312C38.8516 0.742188 39 1.09375 39 1.5V24.1406C39.8594 24.3125 40.6562 24.625 41.3906 25.0781C42.125 25.5313 42.7578 26.0938 43.2891 26.7656C43.8203 27.4375 44.2344 28.1719 44.5312 28.9688C44.8281 29.7656 44.9844 30.6094 45 31.5C45 32.375 44.8516 33.2187 44.5547 34.0312C44.2578 34.8438 43.8359 35.5781 43.2891 36.2344C42.7422 36.8906 42.1094 37.4453 41.3906 37.8984C40.6719 38.3516 39.875 38.6719 39 38.8594V46.5C39 46.9063 38.8516 47.2578 38.5547 47.5547C38.2578 47.8516 37.9063 48 37.5 48C37.0937 48 36.7422 47.8516 36.4453 47.5547C36.1484 47.2578 36 46.9063 36 46.5V38.8594C35.1406 38.6875 34.3438 38.375 33.6094 37.9219C32.875 37.4687 32.2422 36.9062 31.7109 36.2344C31.1797 35.5625 30.7656 34.8281 30.4688 34.0312C30.1719 33.2344 30.0156 32.3906 30 31.5C30 30.625 30.1484 29.7813 30.4453 28.9688C30.7422 28.1562 31.1641 27.4219 31.7109 26.7656C32.2578 26.1094 32.8906 25.5547 33.6094 25.1016C34.3281 24.6484 35.125 24.3281 36 24.1406V1.5C36 1.09375 36.1484 0.742188 36.4453 0.445312C36.7422 0.148437 37.0937 0 37.5 0ZM37.5 27C36.8906 27 36.3125 27.1172 35.7656 27.3516C35.2187 27.5859 34.7422 27.9062 34.3359 28.3125C33.9297 28.7188 33.6016 29.2031 33.3516 29.7656C33.1016 30.3281 32.9844 30.9062 33 31.5C33 32.1094 33.1172 32.6875 33.3516 33.2344C33.5859 33.7813 33.9062 34.2578 34.3125 34.6641C34.7188 35.0703 35.2031 35.3984 35.7656 35.6484C36.3281 35.8984 36.9062 36.0156 37.5 36C38.1094 36 38.6875 35.8828 39.2344 35.6484C39.7813 35.4141 40.2578 35.0938 40.6641 34.6875C41.0703 34.2812 41.3984 33.7969 41.6484 33.2344C41.8984 32.6719 42.0156 32.0938 42 31.5C42 30.8906 41.8828 30.3125 41.6484 29.7656C41.4141 29.2187 41.0938 28.7422 40.6875 28.3359C40.2812 27.9297 39.7969 27.6016 39.2344 27.3516C38.6719 27.1016 38.0938 26.9844 37.5 27Z" fill="white"/>
</svg>
