<svg width="48" height="48" viewBox="0 0 48 48" fill="none" xmlns="http://www.w3.org/2000/svg">
<path d="M24 1.5C23.1716 1.5 22.5 2.17157 22.5 3V21C22.5 21.8284 23.1716 22.5 24 22.5C24.8284 22.5 25.5 21.8284 25.5 21V3C25.5 2.17157 24.8284 1.5 24 1.5Z" fill="white"/>
<path d="M17.1257 10.4954C17.8786 10.1498 18.2088 9.25933 17.8633 8.50641C17.5177 7.7535 16.6272 7.42328 15.8743 7.76884C9.16468 10.8483 4.5 17.6278 4.5 25.5C4.5 36.2695 13.2304 45 24 45C34.7696 45 43.5 36.2695 43.5 25.5C43.5 17.6278 38.8353 10.8483 32.1257 7.76884C31.3728 7.42328 30.4823 7.7535 30.1367 8.50641C29.7912 9.25933 30.1214 10.1498 30.8743 10.4954C36.5579 13.1039 40.5 18.8432 40.5 25.5C40.5 34.6127 33.1127 42 24 42C14.8873 42 7.5 34.6127 7.5 25.5C7.5 18.8432 11.4421 13.1039 17.1257 10.4954Z" fill="white"/>
</svg>
