<svg width="48" height="48" viewBox="0 0 48 48" fill="none" xmlns="http://www.w3.org/2000/svg">
<path fill-rule="evenodd" clip-rule="evenodd" d="M24.0117 48C22.691 48 21.4903 47.685 20.3797 47.07C19.269 46.44 18.3685 45.6 17.6782 44.535C16.9878 43.455 16.6126 42.27 16.5375 40.995L16.5075 40.53H6.00163C5.74649 40.53 5.49135 40.485 5.22119 40.41L4.84599 40.29C4.23064 40.02 3.75037 39.6 3.42019 39.03C3.09 38.445 2.96994 37.815 3.04498 37.125L3.09 36.75L3.24009 36.345L6.00163 29.7V18.87L6.03165 18.21C6.13671 15.15 7.00719 12.345 8.65812 9.795C10.294 7.23 12.4702 5.205 15.1718 3.72C17.8883 2.235 20.8449 1.5 24.0117 1.5C27.1034 1.5 29.985 2.205 32.6415 3.63C35.298 5.04 37.4592 6.975 39.1101 9.42C40.7911 11.88 41.7366 14.58 41.9767 17.55L42.0218 18.915V29.7L44.7833 36.345C44.8583 36.48 44.9034 36.645 44.9484 36.87L44.9934 37.125L45.0234 37.53C45.0234 38.19 44.8133 38.79 44.3931 39.33C43.9879 39.84 43.4476 40.2 42.7722 40.41L42.427 40.47L42.0218 40.53H31.5159L31.4859 40.995C31.4108 42.27 31.0356 43.455 30.3452 44.535C29.6548 45.6 28.7543 46.44 27.6437 47.07C26.5331 47.685 25.3324 48 24.0117 48ZM39.1402 30.585L39.0201 30V18.93L38.9901 18.33C38.9 15.78 38.1646 13.455 36.7988 11.34C35.4331 9.24 33.6321 7.575 31.3808 6.345C29.1296 5.115 26.6682 4.5 24.0117 4.5C21.4303 4.5 19.0289 5.085 16.8077 6.255C14.6014 7.41 12.8154 9 11.4197 11.01C10.0389 13.02 9.25845 15.225 9.04833 17.655L9.00331 18.915V30L8.88324 30.585L6.00163 37.53H42.0218L39.1402 30.585ZM24.0117 45C24.7771 45 25.4825 44.82 26.1429 44.46C26.8033 44.1 27.3436 43.605 27.7638 42.99C28.184 42.36 28.4242 41.67 28.4842 40.92L28.5142 40.53H19.5092L19.5392 40.95C19.6443 42.015 20.0795 42.915 20.8299 43.68C21.5953 44.43 22.5109 44.865 23.5915 44.97L24.0117 45Z" fill="white"/>
</svg>
