<svg width="48" height="48" viewBox="0 0 48 48" fill="none" xmlns="http://www.w3.org/2000/svg">
<path d="M45 15C45 15.5781 44.8828 16.1484 44.6484 16.7109C44.4141 17.2734 44.0938 17.7656 43.6875 18.1875L37.8516 24.0234C38.4297 24.0703 38.9687 24.2187 39.4688 24.4688C39.9688 24.7188 40.4141 25.0391 40.8047 25.4297C41.1953 25.8203 41.4844 26.2891 41.6719 26.8359C41.8594 27.3828 41.9687 27.9375 42 28.5V40.5C42 41.125 41.8828 41.7109 41.6484 42.2578C41.4141 42.8047 41.0938 43.2812 40.6875 43.6875C40.2812 44.0938 39.8047 44.4141 39.2578 44.6484C38.7109 44.8828 38.125 45 37.5 45H7.5C6.875 45 6.28906 44.8828 5.74219 44.6484C5.19531 44.4141 4.71875 44.0938 4.3125 43.6875C3.90625 43.2812 3.58594 42.8047 3.35156 42.2578C3.11719 41.7109 3 41.125 3 40.5V10.5C3 9.875 3.11719 9.28906 3.35156 8.74219C3.58594 8.19531 3.90625 7.71875 4.3125 7.3125C4.71875 6.90625 5.19531 6.58594 5.74219 6.35156C6.28906 6.11719 6.875 6 7.5 6H19.5C20.0781 6 20.6328 6.10156 21.1641 6.30469C21.6953 6.50781 22.1563 6.80469 22.5469 7.19531C22.9375 7.58594 23.2656 8.02344 23.5312 8.50781C23.7969 8.99219 23.9453 9.53906 23.9766 10.1484L29.8125 4.3125C30.2188 3.90625 30.7031 3.58594 31.2656 3.35156C31.8281 3.11719 32.4062 3 33 3C33.5938 3 34.1719 3.11719 34.7344 3.35156C35.2969 3.58594 35.7812 3.90625 36.1875 4.3125L43.6875 11.8125C44.0938 12.2188 44.4141 12.7031 44.6484 13.2656C44.8828 13.8281 45 14.4062 45 15ZM42 15C42 14.5937 41.8516 14.2422 41.5547 13.9453L34.0547 6.44531C33.7578 6.14844 33.4063 6 33 6C32.5937 6 32.2422 6.14844 31.9453 6.44531L24.4453 13.9453C24.1484 14.2422 24 14.5937 24 15C24 15.4063 24.1484 15.7578 24.4453 16.0547L31.9453 23.5547C32.2422 23.8516 32.5937 24 33 24C33.4063 24 33.7578 23.8516 34.0547 23.5547L41.5547 16.0547C41.8516 15.7578 42 15.4063 42 15ZM21 24V10.5C21 10.0937 20.8516 9.74219 20.5547 9.44531C20.2578 9.14844 19.9063 9 19.5 9H7.5C7.09375 9 6.74219 9.14844 6.44531 9.44531C6.14844 9.74219 6 10.0937 6 10.5V24H21ZM28.125 24L24 19.875V24H28.125ZM21 42V27H6V40.5C6 40.9063 6.14844 41.2578 6.44531 41.5547C6.74219 41.8516 7.09375 42 7.5 42H21ZM39 28.5C39 28.0937 38.8516 27.7422 38.5547 27.4453C38.2578 27.1484 37.9063 27 37.5 27H24V42H37.5C37.9063 42 38.2578 41.8516 38.5547 41.5547C38.8516 41.2578 39 40.9063 39 40.5V28.5Z" fill="white"/>
</svg>
