<svg width="24" height="24" viewBox="0 0 24 24" fill="none" xmlns="http://www.w3.org/2000/svg">
  <path d="M7.5 4C5.01 4 3 6.01 3 8.5V12.5C3 14.99 5.01 17 7.5 17H8L9.5 20H14.5L16 17H16.5C18.99 17 21 14.99 21 12.5V8.5C21 6.01 18.99 4 16.5 4H7.5ZM9 8V10H7V8H9ZM10 10V8H11V10H10ZM7 11V13H9V11H7ZM15.5 8.5C16.05 8.5 16.5 8.95 16.5 9.5C16.5 10.05 16.05 10.5 15.5 10.5C14.95 10.5 14.5 10.05 14.5 9.5C14.5 8.95 14.95 8.5 15.5 8.5ZM17.5 10.5C18.05 10.5 18.5 10.95 18.5 11.5C18.5 12.05 18.05 12.5 17.5 12.5C16.95 12.5 16.5 12.05 16.5 11.5C16.5 10.95 16.95 10.5 17.5 10.5Z" fill="white"/>
</svg>
