<svg width="23" height="26" viewBox="0 0 23 26" fill="none" xmlns="http://www.w3.org/2000/svg">
<path d="M22.75 6.5127C22.75 6.80046 22.7077 7.07975 22.623 7.35059C22.5384 7.62142 22.4115 7.87533 22.2422 8.1123C22.0729 8.34928 21.8825 8.55664 21.6709 8.73438C21.4593 8.91211 21.2096 9.05176 20.9219 9.15332L16.25 10.9307V14.8281C16.25 14.8535 16.3092 15.0312 16.4277 15.3613C16.5462 15.6914 16.6943 16.1019 16.8721 16.5928C17.0498 17.0837 17.2487 17.6253 17.4688 18.2178C17.6888 18.8102 17.8962 19.373 18.0908 19.9062C18.2855 20.4395 18.459 20.9176 18.6113 21.3408C18.7637 21.764 18.8652 22.0433 18.916 22.1787C18.9668 22.3395 19.0091 22.5003 19.043 22.6611C19.0768 22.8219 19.0938 22.987 19.0938 23.1562C19.0938 23.554 19.0218 23.9222 18.8779 24.2607C18.734 24.5993 18.5267 24.8997 18.2559 25.1621C17.985 25.4245 17.6803 25.6276 17.3418 25.7715C17.0033 25.9154 16.6351 25.9915 16.2373 26C15.9411 26 15.6576 25.9577 15.3867 25.873C15.1159 25.7884 14.8577 25.6615 14.6123 25.4922C14.3669 25.3229 14.1595 25.124 13.9902 24.8955C13.821 24.667 13.6813 24.4089 13.5713 24.1211L11.375 18.0654L9.16602 24.1211C9.06445 24.4089 8.9248 24.667 8.74707 24.8955C8.56934 25.124 8.36621 25.3187 8.1377 25.4795C7.90918 25.6403 7.65527 25.7673 7.37598 25.8604C7.09668 25.9535 6.80469 26 6.5 26C6.11068 26 5.74251 25.9281 5.39551 25.7842C5.0485 25.6403 4.74805 25.4372 4.49414 25.1748C4.24023 24.9124 4.03711 24.6077 3.88477 24.2607C3.73242 23.9137 3.65625 23.5456 3.65625 23.1562C3.65625 22.987 3.67318 22.8219 3.70703 22.6611C3.74089 22.5003 3.7832 22.3395 3.83398 22.1787C3.86784 22.0687 3.93132 21.8825 4.02441 21.6201C4.11751 21.3577 4.23177 21.0488 4.36719 20.6934C4.5026 20.3379 4.64648 19.9443 4.79883 19.5127C4.95117 19.0811 5.10775 18.6579 5.26855 18.2432C5.42936 17.8285 5.58171 17.4137 5.72559 16.999C5.86947 16.5843 6.00065 16.2246 6.11914 15.9199C6.23763 15.6152 6.33073 15.3613 6.39844 15.1582C6.46615 14.9551 6.5 14.8493 6.5 14.8408V10.9307L1.82812 9.15332C1.54883 9.05176 1.29915 8.91211 1.0791 8.73438C0.859049 8.55664 0.66862 8.34928 0.507812 8.1123C0.347005 7.87533 0.224284 7.62565 0.139648 7.36328C0.055013 7.10091 0.00846354 6.81315 0 6.5C0 6.11068 0.0719401 5.74251 0.21582 5.39551C0.359701 5.0485 0.562826 4.74805 0.825195 4.49414C1.08757 4.24023 1.38802 4.03711 1.72656 3.88477C2.0651 3.73242 2.4375 3.65625 2.84375 3.65625C3.19076 3.65625 3.5293 3.71973 3.85938 3.84668L7.47754 5.23047C7.41829 5.02734 7.37598 4.81999 7.35059 4.6084C7.3252 4.39681 7.3125 4.18522 7.3125 3.97363C7.3125 3.4235 7.42253 2.90723 7.64258 2.4248C7.86263 1.94238 8.15885 1.52344 8.53125 1.16797C8.90365 0.8125 9.33529 0.528971 9.82617 0.317383C10.3171 0.105794 10.8333 0 11.375 0C11.9167 0 12.4329 0.101562 12.9238 0.304688C13.4147 0.507812 13.8464 0.791341 14.2188 1.15527C14.5911 1.51921 14.8874 1.94238 15.1074 2.4248C15.3275 2.90723 15.4375 3.4235 15.4375 3.97363C15.4375 4.18522 15.4248 4.39681 15.3994 4.6084C15.374 4.81999 15.3275 5.02734 15.2598 5.23047L18.8906 3.84668C19.2207 3.71973 19.5592 3.65625 19.9062 3.65625C20.2956 3.65625 20.6637 3.72819 21.0107 3.87207C21.3577 4.01595 21.6582 4.22331 21.9121 4.49414C22.166 4.76497 22.3691 5.06966 22.5215 5.4082C22.6738 5.74674 22.75 6.11491 22.75 6.5127ZM8.9375 4.0625C8.9375 4.39258 9.00098 4.70573 9.12793 5.00195C9.25488 5.29818 9.42839 5.55632 9.64844 5.77637C9.86849 5.99642 10.1309 6.17415 10.4355 6.30957C10.7402 6.44499 11.0534 6.50846 11.375 6.5C11.7051 6.5 12.0182 6.43652 12.3145 6.30957C12.6107 6.18262 12.8688 6.00911 13.0889 5.78906C13.3089 5.56901 13.4867 5.30664 13.6221 5.00195C13.7575 4.69727 13.821 4.38411 13.8125 4.0625C13.8125 3.73242 13.749 3.41927 13.6221 3.12305C13.4951 2.82682 13.3216 2.56868 13.1016 2.34863C12.8815 2.12858 12.6191 1.95085 12.3145 1.81543C12.0098 1.68001 11.6966 1.61654 11.375 1.625C11.0449 1.625 10.7318 1.68848 10.4355 1.81543C10.1393 1.94238 9.88118 2.11589 9.66113 2.33594C9.44108 2.55599 9.26335 2.81836 9.12793 3.12305C8.99251 3.42773 8.92904 3.74089 8.9375 4.0625ZM21.125 6.4873C21.125 6.3265 21.0954 6.17415 21.0361 6.03027C20.9769 5.88639 20.888 5.75521 20.7695 5.63672C20.651 5.51823 20.5199 5.43359 20.376 5.38281C20.2321 5.33203 20.0755 5.29818 19.9062 5.28125C19.7539 5.28125 19.61 5.30664 19.4746 5.35742L12.6699 7.94727C12.4668 8.02344 12.2552 8.08268 12.0352 8.125C11.8151 8.16732 11.5951 8.18848 11.375 8.18848C10.9434 8.18848 10.5075 8.10807 10.0674 7.94727L3.27539 5.35742C3.13151 5.30664 2.98763 5.28125 2.84375 5.28125C2.49674 5.28125 2.20898 5.39551 1.98047 5.62402C1.75195 5.85254 1.63346 6.14453 1.625 6.5C1.625 6.75391 1.69271 6.98242 1.82812 7.18555C1.96354 7.38867 2.1582 7.54102 2.41211 7.64258L7.60449 9.61035C7.7653 9.6696 7.89225 9.76693 7.98535 9.90234C8.07845 10.0378 8.125 10.1943 8.125 10.3721V14.9805C8.125 15.0905 8.10807 15.1836 8.07422 15.2598L5.35742 22.7373C5.30664 22.8812 5.28125 23.0208 5.28125 23.1562C5.28125 23.4948 5.39974 23.7826 5.63672 24.0195C5.8737 24.2565 6.16146 24.375 6.5 24.375C6.75391 24.375 6.98242 24.3031 7.18555 24.1592C7.38867 24.0153 7.54102 23.8206 7.64258 23.5752L9.85156 17.5195C9.97005 17.181 10.1605 16.9186 10.4229 16.7324C10.6852 16.5462 11.0026 16.4489 11.375 16.4404C11.7389 16.4404 12.0521 16.5335 12.3145 16.7197C12.5768 16.9059 12.7715 17.1725 12.8984 17.5195L15.1074 23.5752C15.2005 23.8206 15.3486 24.0153 15.5518 24.1592C15.7549 24.3031 15.9876 24.375 16.25 24.375C16.5885 24.375 16.8763 24.2565 17.1133 24.0195C17.3503 23.7826 17.4688 23.4948 17.4688 23.1562C17.4688 23.0208 17.4434 22.8812 17.3926 22.7373L14.6758 15.2598C14.6419 15.1836 14.625 15.0905 14.625 14.9805V10.3721C14.625 10.2028 14.6715 10.0505 14.7646 9.91504C14.8577 9.77962 14.9847 9.67806 15.1455 9.61035L20.3379 7.64258C20.5833 7.54948 20.7738 7.40137 20.9092 7.19824C21.0446 6.99512 21.1165 6.75814 21.125 6.4873Z" fill="white"/>
</svg>
