<svg width="26" height="26" viewBox="0 0 26 26" fill="none" xmlns="http://www.w3.org/2000/svg">
<path d="M24.375 12.6826C24.375 12.4795 24.3327 12.2848 24.248 12.0986C24.1719 11.904 24.0661 11.7389 23.9307 11.6035C23.7952 11.4596 23.6344 11.3454 23.4482 11.2607C23.2705 11.1761 23.0758 11.1338 22.8643 11.1338H22.7754L16.8086 11.3369L10.4229 1.75195C10.3636 1.66732 10.279 1.625 10.1689 1.625C10.0928 1.625 10.0293 1.65462 9.97852 1.71387C9.92773 1.77311 9.90234 1.84082 9.90234 1.91699V1.96777L11.9463 11.502L4.02441 11.7686L2.4375 8.06152C2.36979 7.89225 2.24284 7.80762 2.05664 7.80762C1.93815 7.80762 1.83659 7.84993 1.75195 7.93457C1.67578 8.01074 1.6377 8.10807 1.6377 8.22656C1.6377 8.26042 1.65885 8.35775 1.70117 8.51855C1.74349 8.67936 1.79427 8.87402 1.85352 9.10254C1.92122 9.33105 1.99316 9.58073 2.06934 9.85156C2.15397 10.1224 2.23014 10.3763 2.29785 10.6133C2.36556 10.8503 2.4248 11.0618 2.47559 11.248C2.53483 11.4342 2.57292 11.557 2.58984 11.6162C2.47135 11.6839 2.35286 11.7516 2.23438 11.8193C2.12435 11.8786 2.02279 11.9463 1.92969 12.0225C1.84505 12.0986 1.77311 12.1917 1.71387 12.3018C1.65462 12.4033 1.625 12.5303 1.625 12.6826C1.625 12.835 1.65462 12.9661 1.71387 13.0762C1.77311 13.1777 1.84505 13.2666 1.92969 13.3428C2.02279 13.4189 2.12435 13.4909 2.23438 13.5586C2.35286 13.6178 2.47135 13.6813 2.58984 13.749C2.57292 13.8083 2.53483 13.931 2.47559 14.1172C2.4248 14.2949 2.36556 14.5065 2.29785 14.752C2.23014 14.9974 2.15397 15.2555 2.06934 15.5264C1.99316 15.7887 1.92122 16.0342 1.85352 16.2627C1.79427 16.4912 1.74349 16.6901 1.70117 16.8594C1.65885 17.0202 1.6377 17.1133 1.6377 17.1387C1.6377 17.2572 1.67578 17.3587 1.75195 17.4434C1.83659 17.5195 1.93815 17.5576 2.05664 17.5576C2.24284 17.5576 2.36979 17.473 2.4375 17.3037L4.02441 13.5967L11.9463 13.8633L9.90234 23.3975V23.4482C9.90234 23.5244 9.92773 23.5921 9.97852 23.6514C10.0293 23.7106 10.0928 23.7402 10.1689 23.7402C10.279 23.7402 10.3636 23.6979 10.4229 23.6133L16.8086 14.0283L22.7754 14.2314H22.8643C23.0758 14.2314 23.2705 14.1891 23.4482 14.1045C23.6344 14.0199 23.7952 13.9098 23.9307 13.7744C24.0661 13.6305 24.1719 13.4655 24.248 13.2793C24.3327 13.0846 24.375 12.8857 24.375 12.6826Z" fill="white"/>
</svg>
