<svg width="13" height="23" viewBox="0 0 13 23" fill="none" xmlns="http://www.w3.org/2000/svg">
<path fill-rule="evenodd" clip-rule="evenodd" d="M6.18909 0.0618716C6.4927 -0.0638879 6.84217 0.00562612 7.07454 0.237999L12.762 5.9255C12.9221 6.08553 13.0081 6.30505 12.9994 6.5312C12.9907 6.75735 12.8881 6.96963 12.7163 7.11692L7.7709 11.3558C8.15177 11.6834 8.5211 12.0015 8.8749 12.3065C9.99013 13.2681 10.9516 14.1007 11.6342 14.6929C11.9756 14.989 12.2472 15.2251 12.4336 15.3871L12.7209 15.6371C12.721 15.6372 12.7212 15.6374 12.1875 16.25L12.7209 15.6371C12.8907 15.785 12.9918 15.9971 12.9995 16.2221C13.0073 16.4472 12.9213 16.6653 12.762 16.8245L7.07454 22.512C6.84217 22.7444 6.4927 22.8139 6.18909 22.6882C5.88548 22.5624 5.68752 22.2661 5.68752 21.9375V13.1416L1.34129 16.8669C1.00058 17.1589 0.487654 17.1195 0.195623 16.7788C-0.0964075 16.4381 -0.0569512 15.9252 0.283751 15.6331L5.27503 11.3549C3.63252 9.94759 1.88055 8.45623 0.290397 7.12255C-0.0534176 6.83419 -0.0983719 6.32172 0.189988 5.9779C0.478349 5.63409 0.990827 5.58913 1.33464 5.87749C2.72343 7.04228 4.23417 8.32604 5.68752 9.56893V0.812524C5.68752 0.483898 5.88548 0.187631 6.18909 0.0618716ZM7.31252 13.1053C7.48265 13.2518 7.64986 13.3959 7.81376 13.5372C8.92751 14.4975 9.88767 15.329 10.5694 15.9204C10.7274 16.0575 10.8704 16.1817 10.997 16.2915L7.31252 19.976V13.1053ZM7.31252 9.60847V2.77407L10.9926 6.45413L7.31252 9.60847Z" fill="white"/>
</svg>
