<svg width="26" height="26" viewBox="23 23 18 18" fill="none" xmlns="http://www.w3.org/2000/svg">
<path fill-rule="evenodd" clip-rule="evenodd" d="M40.6962 39.5538C40.8571 39.7058 40.9375 39.8967 40.9375 40.125C40.9375 40.3452 40.8571 40.5353 40.6962 40.6962C40.5442 40.8571 40.3533 40.9375 40.125 40.9375C39.8967 40.9375 39.7058 40.8571 39.5538 40.6962L32 33.1424L24.4462 40.6962C24.2942 40.8571 24.1033 40.9375 23.875 40.9375C23.6467 40.9375 23.4557 40.8571 23.3038 40.6962C23.1429 40.5182 23.0625 40.3281 23.0625 40.125C23.0625 39.9048 23.1429 39.7147 23.3038 39.5538L30.8576 32L23.3038 24.4462C23.1429 24.2682 23.0625 24.0781 23.0625 23.875C23.0625 23.6548 23.1429 23.4647 23.3038 23.3038C23.4647 23.1429 23.6548 23.0625 23.875 23.0625C24.1033 23.0625 24.2942 23.1429 24.4462 23.3038L32 30.8576L39.5538 23.3038C39.7147 23.1429 39.9048 23.0625 40.125 23.0625C40.3533 23.0625 40.5442 23.1429 40.6962 23.3038C40.8571 23.4557 40.9375 23.6467 40.9375 23.875C40.9375 24.0952 40.8571 24.2853 40.6962 24.4462L33.1424 32L40.6962 39.5538Z" fill="white"/>
</svg>
