<svg width="26" height="26" viewBox="0 0 26 26" fill="none" xmlns="http://www.w3.org/2000/svg">
<path d="M13 3C11.9 3 10.958 3.608 10.5 4.5H15.5C15.042 3.608 14.1 3 13 3Z" fill="white"/>
<path d="M20 17V11C20 7.7 17.8 4.9 14.8 4.2V4C14.8 3 14 2.2 13 2.2C12 2.2 11.2 3 11.2 4V4.2C8.2 4.9 6 7.7 6 11V17L4 19V20H22V19L20 17Z" fill="white"/>
<path d="M13 23C14.1 23 15 22.1 15 21H11C11 22.1 11.9 23 13 23Z" fill="white"/>
<line x1="4.5" y1="4" x2="21.5" y2="22" stroke="white" stroke-width="2" stroke-linecap="round"/>
</svg>
