<svg width="26" height="20" viewBox="0 0 26 20" fill="none" xmlns="http://www.w3.org/2000/svg">
<path d="M2.4375 19.5C1.77734 19.5 1.21506 19.2673 0.750488 18.8027C0.285482 18.3382 0.0485026 17.7759 0.0400391 17.1157V2.4375C0.0400391 1.77734 0.272786 1.21506 0.738281 0.750488C1.20378 0.285482 1.76606 0.0485026 2.42529 0.0400391H23.5625C24.2142 0.0400391 24.7765 0.272786 25.249 0.738281C25.7215 1.20378 25.9542 1.76183 25.9458 2.41211V17.0908C25.9458 17.7425 25.7131 18.3048 25.2485 18.7773C24.7839 19.2499 24.2259 19.49 23.5742 19.4984H2.4375V19.5ZM2.4375 17.875H23.5625C23.7572 17.875 23.9222 17.8073 24.0576 17.6719C24.1931 17.5365 24.2608 17.3714 24.2608 17.1768V2.4375C24.2608 2.24284 24.1931 2.07779 24.0576 1.94238C23.9222 1.80697 23.7572 1.73926 23.5625 1.73926H2.4375C2.24284 1.73926 2.07779 1.80697 1.94238 1.94238C1.80697 2.07779 1.73926 2.24284 1.73926 2.4375V17.1768C1.73926 17.3714 1.80697 17.5365 1.94238 17.6719C2.07779 17.8073 2.24284 17.875 2.4375 17.875ZM8.125 7.3125H5.6875C5.44206 7.3125 5.2474 7.22786 5.10352 7.05859C4.95964 6.88932 4.88346 6.69466 4.875 6.47461C4.875 6.22917 4.95964 6.03451 5.12891 5.89063C5.29818 5.74675 5.48438 5.6748 5.6875 5.6748H8.125C8.37044 5.6748 8.5651 5.75944 8.70898 5.92871C8.85286 6.09798 8.92904 6.29264 8.9375 6.5127C8.9375 6.75814 8.85286 6.9528 8.68359 7.09668C8.51432 7.24056 8.32812 7.3125 8.125 7.3125ZM14.625 7.3125H11.375C11.1296 7.3125 10.9349 7.22786 10.791 7.05859C10.6471 6.88932 10.571 6.69466 10.5625 6.47461C10.5625 6.22917 10.6471 6.03451 10.8164 5.89063C10.9857 5.74675 11.1719 5.6748 11.375 5.6748H14.625C14.8704 5.6748 15.0651 5.75944 15.209 5.92871C15.3529 6.09798 15.429 6.29264 15.4375 6.5127C15.4375 6.75814 15.3529 6.9528 15.1836 7.09668C15.0143 7.24056 14.8281 7.3125 14.625 7.3125ZM20.3125 7.3125H17.875C17.6296 7.3125 17.4349 7.22786 17.291 7.05859C17.1471 6.88932 17.071 6.69466 17.0625 6.47461C17.0625 6.22917 17.1471 6.03451 17.3164 5.89063C17.4857 5.74675 17.6719 5.6748 17.875 5.6748H20.3125C20.5579 5.6748 20.7526 5.75944 20.8965 5.92871C21.0404 6.09798 21.1165 6.29264 21.125 6.5127C21.125 6.75814 21.0404 6.9528 20.8711 7.09668C20.7018 7.24056 20.5156 7.3125 20.3125 7.3125ZM8.125 11.375H5.6875C5.44206 11.375 5.2474 11.2904 5.10352 11.1211C4.95964 10.9518 4.88346 10.7572 4.875 10.5371C4.875 10.2917 4.95964 10.097 5.12891 9.95313C5.29818 9.80924 5.48438 9.7373 5.6875 9.7373H8.125C8.37044 9.7373 8.5651 9.82194 8.70898 9.99121C8.85286 10.1605 8.92904 10.3551 8.9375 10.5752C8.9375 10.8206 8.85286 11.0153 8.68359 11.1592C8.51432 11.3031 8.32812 11.375 8.125 11.375ZM14.625 11.375H11.375C11.1296 11.375 10.9349 11.2904 10.791 11.1211C10.6471 10.9518 10.571 10.7572 10.5625 10.5371C10.5625 10.2917 10.6471 10.097 10.8164 9.95313C10.9857 9.80924 11.1719 9.7373 11.375 9.7373H14.625C14.8704 9.7373 15.0651 9.82194 15.209 9.99121C15.3529 10.1605 15.429 10.3551 15.4375 10.5752C15.4375 10.8206 15.3529 11.0153 15.1836 11.1592C15.0143 11.3031 14.8281 11.375 14.625 11.375ZM20.3125 11.375H17.875C17.6296 11.375 17.4349 11.2904 17.291 11.1211C17.1471 10.9518 17.071 10.7572 17.0625 10.5371C17.0625 10.2917 17.1471 10.097 17.3164 9.95313C17.4857 9.80924 17.6719 9.7373 17.875 9.7373H20.3125C20.5579 9.7373 20.7526 9.82194 20.8965 9.99121C21.0404 10.1605 21.1165 10.3551 21.125 10.5752C21.125 10.8206 21.0404 11.0153 20.8711 11.1592C20.7018 11.3031 20.5156 11.375 20.3125 11.375ZM17.875 15.4375H8.125C7.87956 15.4375 7.6849 15.3529 7.54102 15.1836C7.39714 15.0143 7.32096 14.8197 7.3125 14.5996C7.3125 14.3542 7.39714 14.1595 7.56641 14.0156C7.73568 13.8717 7.92188 13.7998 8.125 13.7998H17.875C18.1204 13.7998 18.3151 13.8844 18.459 14.0537C18.6029 14.223 18.679 14.4176 18.6875 14.6377C18.6875 14.8831 18.6029 15.0778 18.4336 15.2217C18.2643 15.3656 18.0781 15.4375 17.875 15.4375Z" fill="white"/>
</svg>
