<svg width="48" height="48" viewBox="0 0 48 48" fill="none" xmlns="http://www.w3.org/2000/svg">
<path fill-rule="evenodd" clip-rule="evenodd" d="M16.3129 47.9775L18.0445 47.9535C23.6607 47.9535 28.6217 46.8296 32.9275 44.5818C37.2332 42.334 40.5718 39.1736 42.9431 35.099C45.3143 31.0095 46.5 26.3025 46.5 20.9797C46.5 15.7497 46.1334 11.1927 45.4002 7.30542C45.1349 5.86981 44.5499 4.59755 43.6451 3.48862C42.7247 2.38119 41.5702 1.52253 40.1818 0.912616C38.7777 0.304205 37.2488 0 35.5952 0H8.23953C7.45955 0 6.73403 0.187319 6.06321 0.561956C5.37681 0.936593 4.82299 1.45209 4.40168 2.10696C3.88697 2.90419 3.62951 3.78533 3.62951 4.7534C3.62951 5.42474 3.77001 6.07961 4.05068 6.71949C5.25188 9.35843 6.14119 11.9644 6.71836 14.5404C7.28012 17.0999 7.56092 19.7464 7.56092 22.4782C7.56092 25.1636 7.10844 27.8086 6.20375 30.416C5.2832 33.007 4.08983 35.661 2.62317 38.3763C1.87436 39.7505 1.5 41.1247 1.5 42.4973C1.5 43.3245 1.65609 44.0903 1.96805 44.7931C2.62317 46.1658 3.75434 47.0244 5.36115 47.3676C7.40484 47.7902 10.1818 48 13.692 48L16.3129 47.9775ZM16.2894 44.9804L13.8557 45.0029C10.4236 45.0029 7.79476 44.8081 5.96962 44.4185C5.29879 44.2926 4.87749 43.9959 4.70597 43.5283C4.56565 43.2466 4.49532 42.8959 4.49532 42.4748C4.49532 41.6477 4.75278 40.7575 5.26772 39.8044C6.82763 36.9017 8.09913 34.038 9.08191 31.2118C10.0648 28.387 10.5562 25.4753 10.5562 22.4782C10.5562 19.5126 10.252 16.6474 9.64355 13.8855C9.01959 11.1057 8.06784 8.30495 6.78868 5.47869C6.67944 5.2599 6.62482 5.01115 6.62482 4.72942C6.62482 4.35478 6.72617 4.01911 6.929 3.72239C7.03824 3.53508 7.20976 3.37173 7.44388 3.23087C7.66241 3.07502 7.92753 2.9971 8.23953 2.9971H35.5952C36.5936 2.9971 37.5765 3.16044 38.5437 3.48862C39.4953 3.8168 40.33 4.34729 41.0476 5.08158C41.7652 5.79938 42.2332 6.72848 42.4517 7.86738C43.1537 11.5208 43.5047 15.8906 43.5047 20.9797C43.5047 25.7091 42.4438 29.893 40.3222 33.53C38.2005 37.152 35.213 39.9618 31.3596 41.9593C27.5062 43.9569 23.0679 44.9564 18.0445 44.9564L16.2894 44.9804ZM18.0445 29.971C17.6389 29.971 17.2878 29.8226 16.9915 29.5259C16.6951 29.2292 16.5468 28.8785 16.5468 28.4724V16.484C16.5468 16.0779 16.6951 15.7273 16.9915 15.4306C17.2878 15.1338 17.6389 14.9855 18.0445 14.9855C18.45 14.9855 18.8011 15.1338 19.0975 15.4306C19.3939 15.7273 19.5421 16.0779 19.5421 16.484V26.9739H24.0351C24.4407 26.9739 24.7917 27.1222 25.0881 27.4189C25.3845 27.7157 25.5328 28.0663 25.5328 28.4724C25.5328 28.8785 25.3845 29.2292 25.0881 29.5259C24.7917 29.8226 24.4407 29.971 24.0351 29.971H18.0445ZM31.5234 29.971C31.1178 29.971 30.7668 29.8226 30.4704 29.5259C30.174 29.2292 30.0257 28.8785 30.0257 28.4724V17.9826H27.0304C26.6249 17.9826 26.2738 17.8342 25.9774 17.5375C25.681 17.2408 25.5328 16.8901 25.5328 16.484C25.5328 16.0779 25.681 15.7273 25.9774 15.4306C26.2738 15.1338 26.6249 14.9855 27.0304 14.9855H36.0164C36.4219 14.9855 36.773 15.1338 37.0694 15.4306C37.3658 15.7273 37.514 16.0779 37.514 16.484C37.514 16.8901 37.3658 17.2408 37.0694 17.5375C36.773 17.8342 36.4219 17.9826 36.0164 17.9826H33.0211V28.4724C33.0211 28.8785 32.8728 29.2292 32.5764 29.5259C32.28 29.8226 31.929 29.971 31.5234 29.971Z" fill="white"/>
</svg>
