<svg width="18" height="26" viewBox="0 0 18 26" fill="none" xmlns="http://www.w3.org/2000/svg">
<path d="M8.9502 25.1621C8.62858 25.1621 8.33659 25.0817 8.07422 24.9209C7.81185 24.7601 7.60872 24.5273 7.46484 24.2227L5.34473 19.6016L2.08203 22.877C1.84505 23.1139 1.56152 23.2324 1.23145 23.2324C0.88444 23.2324 0.592448 23.1182 0.355469 22.8896C0.11849 22.6611 0 22.3691 0 22.0137V1.21875C0 0.871745 0.11849 0.583984 0.355469 0.355469C0.592448 0.126953 0.88444 0.00846354 1.23145 0C1.56152 0 1.84505 0.11849 2.08203 0.355469L16.9482 15.2217C17.1852 15.4587 17.3037 15.7422 17.3037 16.0723C17.3037 16.4193 17.1895 16.7113 16.9609 16.9482C16.7324 17.1852 16.4404 17.3037 16.085 17.3037H11.248L13.165 21.582C13.2581 21.7936 13.3047 22.0179 13.3047 22.2549C13.3047 22.5765 13.2243 22.8643 13.0635 23.1182C12.9027 23.3721 12.6742 23.571 12.3779 23.7148L9.63574 25.0098C9.41569 25.1113 9.18717 25.1621 8.9502 25.1621ZM8.9375 23.5371L11.6797 22.2549L9.50879 17.3926C9.44108 17.2402 9.40723 17.0752 9.40723 16.8975C9.40723 16.5589 9.52572 16.2712 9.7627 16.0342C9.99967 15.7972 10.2874 15.6787 10.626 15.6787H15.0947L1.625 2.20898V21.0234L4.62109 18.04C4.85807 17.8031 5.14583 17.6846 5.48438 17.6846C5.72135 17.6846 5.94141 17.748 6.14453 17.875C6.34766 18.002 6.49577 18.1755 6.58887 18.3955L8.9375 23.5371Z" fill="white"/>
</svg>
