<svg width="48" height="48" viewBox="0 0 48 48" fill="none" xmlns="http://www.w3.org/2000/svg">
<path fill-rule="evenodd" clip-rule="evenodd" d="M31.6871 47.9775L29.9555 47.9535C24.3393 47.9535 19.3783 46.8296 15.0725 44.5818C10.7668 42.334 7.42823 39.1736 5.05694 35.099C2.68565 31.0095 1.5 26.3025 1.5 20.9797C1.5 15.7497 1.86661 11.1927 2.59984 7.30542C2.86505 5.86981 3.45007 4.59755 4.35491 3.48862C5.27534 2.38119 6.4298 1.52253 7.81825 0.912616C9.2223 0.304205 10.7512 0 12.4048 0H39.7605C40.5405 0 41.266 0.187319 41.9368 0.561956C42.6232 0.936593 43.177 1.45209 43.5983 2.10696C44.113 2.90419 44.3705 3.78533 44.3705 4.7534C44.3705 5.42474 44.23 6.07961 43.9493 6.71949C42.7481 9.35843 41.8588 11.9644 41.2816 14.5404C40.7199 17.0999 40.4391 19.7464 40.4391 22.4782C40.4391 25.1636 40.8916 27.8086 41.7963 30.416C42.7168 33.007 43.9102 35.661 45.3768 38.3763C46.1256 39.7505 46.5 41.1247 46.5 42.4973C46.5 43.3245 46.3439 44.0903 46.032 44.7931C45.3768 46.1658 44.2457 47.0244 42.6389 47.3676C40.5952 47.7902 37.8182 48 34.308 48L31.6871 47.9775ZM31.7106 44.9804L34.1443 45.0029C37.5764 45.0029 40.2052 44.8081 42.0304 44.4185C42.7012 44.2926 43.1225 43.9959 43.294 43.5283C43.4344 43.2466 43.5047 42.8959 43.5047 42.4748C43.5047 41.6477 43.2472 40.7575 42.7323 39.8044C41.1724 36.9017 39.9009 34.038 38.9181 31.2118C37.9352 28.387 37.4438 25.4753 37.4438 22.4782C37.4438 19.5126 37.748 16.6474 38.3565 13.8855C38.9804 11.1057 39.9322 8.30495 41.2113 5.47869C41.3205 5.2599 41.3752 5.01115 41.3752 4.72942C41.3752 4.35478 41.2738 4.01911 41.071 3.72239C40.9618 3.53508 40.7902 3.37173 40.5561 3.23087C40.3377 3.07502 40.0725 2.9971 39.7605 2.9971H12.4048C11.4064 2.9971 10.4235 3.16044 9.45631 3.48862C8.50467 3.8168 7.67004 4.34729 6.95241 5.08158C6.23479 5.79938 5.76677 6.72848 5.54835 7.86738C4.84634 11.5208 4.49532 15.8906 4.49532 20.9797C4.49532 25.7091 5.55615 29.893 7.67784 33.53C9.79953 37.152 12.787 39.9618 16.6404 41.9593C20.4938 43.9569 24.9321 44.9564 29.9555 44.9564L31.7106 44.9804ZM11.9836 29.971C11.578 29.971 11.227 29.8226 10.9306 29.5259C10.6342 29.2292 10.486 28.8785 10.486 28.4724V16.484C10.486 16.0779 10.6342 15.7273 10.9306 15.4306C11.227 15.1338 11.578 14.9855 11.9836 14.9855L12.9664 14.9615L14.3003 14.939C15.7824 14.939 17.1007 15.0709 18.2551 15.3361C19.4095 15.5864 20.3612 16.0779 21.11 16.8122C22.0148 17.6709 22.4672 18.8098 22.4672 20.2304C22.4672 22.1665 21.6637 23.5482 20.0569 24.3754L22.2098 27.6302C22.3814 27.8955 22.4672 28.1757 22.4672 28.4724C22.4672 28.7227 22.4048 28.9564 22.28 29.1752C22.1708 29.394 22.0148 29.5724 21.812 29.7132C21.5468 29.8855 21.2659 29.971 20.9696 29.971C20.7199 29.971 20.486 29.917 20.2675 29.8076C20.0491 29.6817 19.8697 29.5109 19.7294 29.2921L17.0148 25.2415C16.1412 25.3659 14.9633 25.4439 13.4813 25.4753V28.4724C13.4813 28.8785 13.3331 29.2292 13.0366 29.5259C12.7402 29.8226 12.3892 29.971 11.9836 29.971ZM13.4813 22.4782C14.9633 22.4468 16.1256 22.3688 16.968 22.2445C17.826 22.1036 18.4578 21.8773 18.8636 21.5656C19.2691 21.2524 19.4719 20.8073 19.4719 20.2304C19.4719 19.6684 19.3236 19.2399 19.0272 18.9431C18.3409 18.2718 16.7885 17.9361 14.3705 17.9361L13.4813 17.9586V22.4782ZM28.4579 29.971C28.0523 29.971 27.7012 29.8226 27.4049 29.5259C27.1085 29.2292 26.9602 28.8785 26.9602 28.4724V17.9826H23.9649C23.5593 17.9826 23.2083 17.8342 22.9119 17.5375C22.6155 17.2408 22.4672 16.8901 22.4672 16.484C22.4672 16.0779 22.6155 15.7273 22.9119 15.4306C23.2083 15.1338 23.5593 14.9855 23.9649 14.9855H32.9508C33.3564 14.9855 33.7074 15.1338 34.0038 15.4306C34.3002 15.7273 34.4485 16.0779 34.4485 16.484C34.4485 16.8901 34.3002 17.2408 34.0038 17.5375C33.7074 17.8342 33.3564 17.9826 32.9508 17.9826H29.9555V28.4724C29.9555 28.8785 29.8072 29.2292 29.5109 29.5259C29.2145 29.8226 28.8634 29.971 28.4579 29.971Z" fill="white"/>
</svg>
