<svg width="26" height="25" viewBox="0 0 26 25" fill="none" xmlns="http://www.w3.org/2000/svg">
<path fill-rule="evenodd" clip-rule="evenodd" d="M8.9375 9.09573C8.9375 8.72816 9.18428 8.40636 9.53928 8.31105L15.2268 6.78374C15.7429 6.64514 16.25 7.03398 16.25 7.56842V17.5546C16.25 17.9226 16.0027 18.2446 15.6471 18.3396L9.95962 19.8584C9.44375 19.9961 8.9375 19.6073 8.9375 19.0734V9.09573ZM10.5625 18.0155V9.71884L14.625 8.62789V16.9306L10.5625 18.0155Z" fill="white"/>
<path fill-rule="evenodd" clip-rule="evenodd" d="M21.9375 4.96802L24.1643 4.37005C24.6804 4.23144 25.1875 4.62028 25.1875 5.15473V15.1613C25.1875 15.5296 24.9397 15.8519 24.5837 15.9465L21.9375 16.6498V18.031C21.9375 18.7609 21.4509 19.4012 20.7477 19.5966L4.49771 24.1138C3.4622 24.4017 2.4375 23.623 2.4375 22.5482V21.8873L1.02423 22.2688C0.507853 22.4082 0 22.0193 0 21.4844V11.4932C0 11.1256 0.246778 10.8038 0.601778 10.7085L2.4375 10.2155V6.05252C2.4375 5.31957 2.92819 4.67731 3.6354 4.48465L19.8854 0.0580551C20.919 -0.223523 21.9375 0.55461 21.9375 1.62593V4.96802ZM20.3125 1.62593L4.0625 6.05252V9.77914L6.28928 9.18117C6.80542 9.04257 7.3125 9.43141 7.3125 9.96585V19.9492C7.3125 20.3164 7.06623 20.638 6.71173 20.7337L4.0625 21.4487V22.5482L20.3125 18.031V17.0817L18.8962 17.4582C18.3805 17.5952 17.875 17.2065 17.875 16.6729V6.68203C17.875 6.31446 18.1218 5.99267 18.4768 5.89735L20.3125 5.40437V1.62593ZM19.5 7.30514V15.6163L23.5625 14.5365V6.21419L19.5 7.30514ZM1.625 20.4235V12.1163L5.6875 11.0253V19.327L1.625 20.4235Z" fill="white"/>
</svg>
