<svg width="48" height="48" viewBox="20.7 15.8 32 32" fill="none" xmlns="http://www.w3.org/2000/svg">
<path d="M36.5751 15.9961C32.634 15.9961 28.8358 17.4818 25.9391 20.1552C23.0425 22.8287 21.2596 26.498 20.9414 30.4286L29.3498 33.9102C30.0842 33.4041 30.9573 33.1347 31.8507 33.1388H32.0996L35.8367 27.7184V27.6409C35.8407 26.4695 36.1916 25.3266 36.8444 24.3593C37.4971 23.3879 38.4232 22.6328 39.5044 22.1879C40.5855 21.743 41.7768 21.6287 42.9232 21.8614C44.0696 22.094 45.1222 22.6573 45.9463 23.4858C46.7705 24.3144 47.3335 25.3715 47.5579 26.5185C47.7863 27.6654 47.668 28.8572 47.2192 29.9348C46.7705 31.0164 46.0116 31.9388 45.0406 32.5878C44.0697 33.2368 42.9232 33.5837 41.7564 33.5837H41.6218L36.3018 37.3878V37.5959C36.3018 38.6979 35.8979 39.7632 35.1553 40.5836C34.4169 41.404 33.397 41.9183 32.2995 42.0244C31.202 42.1346 30.1046 41.8285 29.2152 41.1755C28.3299 40.5183 27.7179 39.5551 27.5058 38.4735L21.4963 35.9918C22.2918 38.8 23.8544 41.3306 26.0085 43.302C28.1626 45.2693 30.8226 46.5999 33.6907 47.1387C36.5588 47.6775 39.5207 47.404 42.2419 46.3509C44.9631 45.2979 47.3375 43.5061 49.0959 41.1796C50.8543 38.849 51.9314 36.0776 52.2006 33.1715C52.4699 30.2654 51.9273 27.3389 50.6258 24.7266C49.3244 22.1144 47.3212 19.9144 44.8407 18.3757C42.3602 16.8369 39.5003 16.0247 36.5792 16.0247L36.5669 16.0043L36.5751 15.9961ZM30.7777 39.8081L28.848 39.0081C29.1295 39.5918 29.5701 40.0816 30.125 40.4163C30.6757 40.751 31.3163 40.9183 31.9609 40.8979C32.6055 40.8775 33.2338 40.6694 33.7601 40.2979C34.2904 39.9265 34.6984 39.4081 34.9391 38.8081C35.1798 38.2082 35.241 37.551 35.1145 36.9184C34.9881 36.2857 34.678 35.7021 34.2292 35.2408C33.7764 34.7796 33.2011 34.4572 32.5688 34.3184C31.9364 34.1796 31.2796 34.2245 30.6757 34.4531L32.6667 35.2776C33.2664 35.5265 33.7437 36.0082 33.9926 36.6082C34.2415 37.2082 34.2374 37.8857 33.9926 38.4857C33.7437 39.0857 33.2623 39.5632 32.6626 39.8122C32.0629 40.0612 31.3856 40.0571 30.7859 39.8122L30.7777 39.8081ZM45.0488 25.4532C45.4813 26.1021 45.7138 26.8654 45.7138 27.645C45.7138 28.6899 45.2977 29.6899 44.5592 30.4286C43.8208 31.1674 42.8212 31.5837 41.7768 31.5837C40.9976 31.5837 40.2347 31.3551 39.586 30.9184C38.9373 30.4858 38.4314 29.8694 38.1336 29.147C37.8358 28.4246 37.7582 27.6327 37.9092 26.8654C38.0601 26.0981 38.4355 25.396 38.9903 24.845C39.5411 24.294 40.2428 23.9185 41.0098 23.7634C41.7768 23.6124 42.5683 23.6899 43.2904 23.9879C44.0125 24.2858 44.6286 24.7919 45.061 25.4409L45.0488 25.4532ZM39.3126 26.0001C38.9863 26.4858 38.8149 27.0613 38.8149 27.645L38.7986 27.6368C38.7986 28.0286 38.8761 28.4164 39.023 28.7756C39.1739 29.1388 39.3901 29.4654 39.6676 29.7429C39.945 30.0205 40.2714 30.2368 40.6345 30.3837C40.9976 30.5307 41.3852 30.6082 41.7727 30.6041C42.3602 30.6041 42.9314 30.4286 43.4169 30.1062C43.9024 29.7797 44.2818 29.3184 44.5062 28.7756C44.7306 28.2327 44.7877 27.6368 44.6735 27.0654C44.5592 26.4899 44.2777 25.9634 43.8616 25.547C43.4495 25.1348 42.9192 24.8491 42.3439 24.7348C41.7687 24.6205 41.173 24.6777 40.6345 24.9021C40.0919 25.1266 39.6309 25.5062 39.3045 25.9919L39.3126 26.0001Z" fill="white"/>
</svg>
