<svg width="48" height="48" viewBox="0 0 48 48" fill="none" xmlns="http://www.w3.org/2000/svg">
<path fill-rule="evenodd" clip-rule="evenodd" d="M21.75 41.367C21.1563 41.367 20.625 41.148 20.1562 40.71L12.8906 33.4215H7.5C6.68749 33.4215 5.9375 33.219 5.25 32.8125C4.5625 32.406 4.01562 31.8585 3.60938 31.1715C3.20313 30.4845 3 29.7345 3 28.9215V19.9215C3 19.1085 3.20313 18.3585 3.60938 17.6715C4.01562 16.9845 4.5625 16.437 5.25 16.0305C5.9375 15.624 6.68749 15.4215 7.5 15.4215H12.8906L20.1562 8.133C20.6094 7.71 21.1407 7.5 21.75 7.5C22.0624 7.5 22.3515 7.554 22.6172 7.6635C23.0391 7.8195 23.3749 8.094 23.625 8.484C23.8751 8.859 24 9.273 24 9.726V39.117C24 39.57 23.8751 39.984 23.625 40.359C23.3749 40.734 23.0391 41.007 22.6172 41.1795C22.3203 41.304 22.0312 41.367 21.75 41.367ZM36.1171 39.234C35.6797 39.234 35.3047 39.0705 34.9921 38.742C34.7265 38.445 34.5938 38.1165 34.5938 37.758C34.5938 37.32 34.7656 36.945 35.1093 36.633C36.8282 35.07 38.1562 33.2265 39.0938 31.101C40.0312 28.9605 40.5 26.7345 40.5 24.4215C40.5 22.1085 40.0312 19.89 39.0938 17.7645C38.1562 15.624 36.8282 13.773 35.1093 12.21C34.7656 11.898 34.5938 11.523 34.5938 11.085C34.5938 10.7265 34.7265 10.398 34.9921 10.101C35.3047 9.7725 35.6797 9.609 36.1171 9.609C36.5235 9.609 36.8593 9.7335 37.125 9.984C39.1563 11.844 40.7265 14.031 41.8359 16.5465C42.9453 19.062 43.5 21.687 43.5 24.4215C43.5 27.156 42.9453 29.781 41.8359 32.2965C40.7265 34.812 39.1563 36.999 37.125 38.859C36.8282 39.1095 36.4921 39.234 36.1171 39.234ZM14.5547 17.976C14.2578 18.273 13.9062 18.4215 13.5 18.4215H7.5C7.09375 18.4215 6.74219 18.57 6.44532 18.867C6.14844 19.164 6 19.515 6 19.9215V28.9215C6 29.328 6.14844 29.679 6.44532 29.976C6.74219 30.273 7.09375 30.4215 7.5 30.4215H13.5C13.9062 30.4215 14.2578 30.57 14.5547 30.867L21 37.2885V11.5305L14.5547 17.976ZM30.2812 33.5145C29.8907 33.5145 29.5782 33.4065 29.3438 33.1875C29.1562 33.0465 29.0157 32.874 28.9218 32.6715C28.8282 32.469 28.7812 32.2575 28.7812 32.0385C28.7812 31.68 28.8984 31.359 29.1329 31.0785C29.8985 30.1395 30.4843 29.1015 30.8907 27.96C31.2969 26.805 31.5 25.6245 31.5 24.4215C31.5 23.2185 31.2969 22.047 30.8907 20.9055C30.4843 19.749 29.8985 18.7035 29.1329 17.7645C28.8984 17.484 28.7812 17.163 28.7812 16.8045C28.7812 16.5855 28.8282 16.374 28.9218 16.1715C29.0157 15.969 29.1562 15.7965 29.3438 15.6555C29.625 15.4215 29.9374 15.3045 30.2812 15.3045C30.75 15.3045 31.1406 15.492 31.4532 15.867C32.4375 17.055 33.1875 18.39 33.7032 19.875C34.2344 21.3435 34.5 22.8585 34.5 24.4215C34.5 25.9845 34.2344 27.4995 33.7032 28.968C33.1875 30.4365 32.4375 31.773 31.4532 32.976C31.1406 33.336 30.75 33.5145 30.2812 33.5145Z" fill="white"/>
</svg>
