<svg width="48" height="48" viewBox="19 14 35 35" fill="none" xmlns="http://www.w3.org/2000/svg">
<path fill-rule="evenodd" clip-rule="evenodd" d="M28.4876 18.1265C28.4467 18.1265 28.4211 18.1214 28.4109 18.1112V18.0805L28.4416 18.0345C29.7197 17.2676 31.0337 16.6899 32.3834 16.3013C33.7331 15.9127 35.1544 15.7134 36.6473 15.7031C38.1095 15.7031 39.5257 15.8974 40.8959 16.286C42.2661 16.6745 43.5749 17.2522 44.8224 18.0191L44.8684 18.0498C44.8377 18.1009 44.807 18.1265 44.7764 18.1265C44.6946 18.1265 44.6076 18.1163 44.5156 18.0958C44.4236 18.0754 44.3367 18.0549 44.2549 18.0345C44.1628 18.0242 44.0708 18.0191 43.9788 18.0191C43.8868 18.0191 43.7947 18.0191 43.7027 18.0191C43.2221 18.0191 42.7364 18.0651 42.2456 18.1572C41.7548 18.2492 41.264 18.3719 40.7732 18.5253C40.2824 18.6787 39.812 18.8525 39.3621 19.0468C38.9122 19.241 38.4623 19.4404 38.0124 19.6449C37.7874 19.7574 37.5625 19.8648 37.3375 19.967C37.1126 20.0693 36.8927 20.1971 36.678 20.3505H36.6013C36.1616 20.0744 35.6504 19.7983 35.0675 19.5222C34.4847 19.2462 33.8712 18.9956 33.227 18.7707C32.5828 18.5457 31.954 18.3617 31.3404 18.2185C30.7269 18.0754 30.1492 18.0038 29.6073 18.0038C29.413 18.0038 29.2136 18.0242 29.0091 18.0651C28.8046 18.106 28.6308 18.1265 28.4876 18.1265ZM32.3374 24.4457C31.8875 24.9876 31.3711 25.642 30.7883 26.4089C30.2054 27.1758 29.6073 28.0143 28.9938 28.9243C28.3802 29.8344 27.7821 30.7751 27.1992 31.7465C26.6164 32.7179 26.0949 33.6841 25.6348 34.6453C25.1746 35.6065 24.8065 36.5268 24.5305 37.4061C24.2544 38.2855 24.1112 39.0831 24.101 39.7988C24.101 39.9727 24.1112 40.1618 24.1317 40.3663C24.1521 40.5708 24.193 40.7549 24.2544 40.9185L24.239 40.9492L24.2084 40.9645L24.147 40.9338C23.0938 39.5125 22.2962 38.0145 21.7543 36.4398C21.2124 34.8652 20.9414 33.1882 20.9414 31.409C20.9414 30.407 21.0437 29.3896 21.2482 28.3568C21.4527 27.3241 21.7594 26.322 22.1684 25.3506C22.5774 24.3792 23.0682 23.4589 23.6409 22.5898C24.2135 21.7207 24.8781 20.9384 25.6348 20.2431C25.6859 20.2022 25.7626 20.1767 25.8648 20.1664C25.9671 20.1562 26.0438 20.146 26.0949 20.1358C26.4017 20.1358 26.7391 20.2073 27.1072 20.3505C27.4753 20.4936 27.8588 20.6879 28.2575 20.9333C28.6563 21.1787 29.0449 21.4497 29.4232 21.7462C29.8015 22.0428 30.1799 22.3495 30.5582 22.6665C30.9365 22.9835 31.2689 23.2851 31.5552 23.5714C31.8415 23.8577 32.1022 24.1134 32.3374 24.3383L32.3527 24.3997L32.3374 24.4457ZM47.1844 20.1358C47.256 20.1358 47.3378 20.1409 47.4298 20.1511C47.5218 20.1613 47.5985 20.192 47.6599 20.2431C48.4063 20.9691 49.0709 21.7616 49.6538 22.6205C50.2366 23.4794 50.7274 24.3894 51.1262 25.3506C51.525 26.3118 51.8266 27.3036 52.0311 28.3261C52.2356 29.3487 52.343 30.3763 52.3532 31.409C52.3532 33.178 52.0823 34.8549 51.5403 36.4398C50.9984 38.0248 50.2008 39.5227 49.1476 40.9338L49.0556 40.9492L49.0249 40.9031C49.0556 40.8622 49.0812 40.7907 49.1016 40.6884C49.1221 40.5862 49.1374 40.4788 49.1476 40.3663C49.1579 40.2538 49.1681 40.1414 49.1783 40.0289C49.1885 39.9164 49.1937 39.8346 49.1937 39.7835C49.1937 39.0779 49.0556 38.2855 48.7795 37.4061C48.5034 36.5268 48.1353 35.6065 47.6752 34.6453C47.2151 33.6842 46.6936 32.7128 46.1108 31.7311C45.5279 30.7495 44.9297 29.8088 44.3162 28.909C43.7027 28.0092 43.1045 27.1758 42.5217 26.4089C41.9389 25.642 41.4174 24.9825 40.9572 24.4303L40.9419 24.3843L40.9572 24.3383C41.172 24.1236 41.4276 23.8731 41.7241 23.5868C42.0207 23.3005 42.353 23.0039 42.7211 22.6972C43.0892 22.3904 43.4624 22.0785 43.8408 21.7616C44.2191 21.4446 44.6128 21.1736 45.0218 20.9487C45.4308 20.7237 45.8142 20.5294 46.1721 20.3658C46.53 20.2022 46.8674 20.1255 47.1844 20.1358ZM36.6473 28.3108C36.9439 28.4949 37.2302 28.7096 37.5062 28.955C37.7823 29.2004 38.0584 29.4407 38.3345 29.6759C38.7639 30.0542 39.2854 30.5348 39.8989 31.1176C40.5125 31.7005 41.1618 32.3549 41.8468 33.0809C42.5319 33.8069 43.2017 34.5686 43.8561 35.3662C44.5105 36.1638 45.1087 36.9562 45.6506 37.7436C46.1926 38.5309 46.622 39.2927 46.939 40.0289C47.256 40.7651 47.4196 41.4246 47.4298 42.0075C47.4298 42.2426 47.3991 42.4625 47.3378 42.667C47.2764 42.8715 47.1588 43.0607 46.985 43.2345C46.668 43.5515 46.3153 43.8429 45.9267 44.1087C45.5381 44.3746 45.1496 44.6251 44.761 44.8603C43.534 45.5965 42.2354 46.1538 40.8652 46.5321C39.495 46.9105 38.0891 47.1047 36.6473 47.115C35.2056 47.115 33.8047 46.9258 32.4448 46.5475C31.0848 46.1691 29.7811 45.6067 28.5336 44.8603C28.3598 44.758 28.14 44.6251 27.8741 44.4615C27.6082 44.2979 27.3475 44.1087 27.0919 43.894C26.8362 43.6793 26.5959 43.4748 26.371 43.2805C26.146 43.0862 26.008 42.8868 25.9569 42.6823C25.8853 42.4778 25.8495 42.2478 25.8495 41.9921C25.8495 41.44 26.0029 40.8162 26.3096 40.1209C26.6164 39.4256 27.0152 38.6996 27.506 37.9429C27.9968 37.1863 28.5592 36.4245 29.1931 35.6576C29.8271 34.8907 30.456 34.1647 31.0797 33.4796C31.7034 32.7946 32.3067 32.1657 32.8896 31.5931C33.4724 31.0205 33.9683 30.5501 34.3773 30.182C34.725 29.8753 35.0931 29.5481 35.4816 29.2004C35.8702 28.8527 36.2588 28.5562 36.6473 28.3108Z" fill="white"/>
</svg>
