<svg width="48" height="48" viewBox="0 0 48 48" fill="none" xmlns="http://www.w3.org/2000/svg">
<path fill-rule="evenodd" clip-rule="evenodd" d="M22.5 7.5V6C22.5 5.59375 22.6484 5.24219 22.9453 4.94531C23.2422 4.64844 23.5937 4.5 24 4.5C24.4063 4.5 24.7578 4.64844 25.0547 4.94531C25.3516 5.24219 25.5 5.59375 25.5 6V7.5C25.5 7.90625 25.3516 8.25781 25.0547 8.55469C24.7578 8.85156 24.4063 9 24 9C23.5937 9 23.2422 8.85156 22.9453 8.55469C22.6484 8.25781 22.5 7.90625 22.5 7.5ZM9 10.5C9 10.0937 9.14844 9.74219 9.44531 9.44531C9.74219 9.14844 10.0937 9 10.5 9C10.9063 9 11.2578 9.14844 11.5547 9.44531L13.0547 10.9453C13.3516 11.2422 13.5 11.5937 13.5 12C13.5 12.4063 13.3516 12.7578 13.0547 13.0547C12.7578 13.3516 12.4063 13.5 12 13.5C11.5937 13.5 11.2422 13.3516 10.9453 13.0547L9.44531 11.5547C9.14844 11.2578 9 10.9063 9 10.5ZM34.5 12C34.5 11.5937 34.6484 11.2422 34.9453 10.9453L36.4453 9.44531C36.7422 9.14844 37.0937 9 37.5 9C37.9063 9 38.2578 9.14844 38.5547 9.44531C38.8516 9.74219 39 10.0937 39 10.5C39 10.9063 38.8516 11.2578 38.5547 11.5547L37.0547 13.0547C36.7578 13.3516 36.4063 13.5 36 13.5C35.5937 13.5 35.2422 13.3516 34.9453 13.0547C34.6484 12.7578 34.5 12.4063 34.5 12ZM12 24C12 22.3438 12.3125 20.7891 12.9375 19.3359C13.5625 17.8828 14.4219 16.6094 15.5156 15.5156C16.6094 14.4219 17.8828 13.5625 19.3359 12.9375C20.7891 12.3125 22.3438 12 24 12C25.6562 12 27.2109 12.3125 28.6641 12.9375C30.1172 13.5625 31.3906 14.4141 32.4844 15.4922C33.5781 16.5703 34.4375 17.8437 35.0625 19.3125C35.6875 20.7813 36 22.3438 36 24C36 25.6562 35.6875 27.2109 35.0625 28.6641C34.4375 30.1172 33.5859 31.3906 32.5078 32.4844C31.4297 33.5781 30.1563 34.4375 28.6875 35.0625C27.2187 35.6875 25.6562 36 24 36C22.3438 36 20.7891 35.6875 19.3359 35.0625C17.8828 34.4375 16.6094 33.5859 15.5156 32.5078C14.4219 31.4297 13.5625 30.1563 12.9375 28.6875C12.3125 27.2187 12 25.6562 12 24ZM15 24C15 25.25 15.2344 26.4219 15.7031 27.5156C16.1719 28.6094 16.8125 29.5625 17.625 30.375C18.4375 31.1875 19.3906 31.8281 20.4844 32.2969C21.5781 32.7656 22.75 33 24 33C25.25 33 26.4219 32.7656 27.5156 32.2969C28.6094 31.8281 29.5625 31.1875 30.375 30.375C31.1875 29.5625 31.8281 28.6094 32.2969 27.5156C32.7656 26.4219 33 25.25 33 24C33 22.75 32.7656 21.5781 32.2969 20.4844C31.8281 19.3906 31.1875 18.4375 30.375 17.625C29.5625 16.8125 28.6094 16.1719 27.5156 15.7031C26.4219 15.2344 25.25 15 24 15C22.75 15 21.5781 15.2344 20.4844 15.7031C19.3906 16.1719 18.4375 16.8125 17.625 17.625C16.8125 18.4375 16.1719 19.3906 15.7031 20.4844C15.2344 21.5781 15 22.75 15 24ZM6 25.5C5.59375 25.5 5.24219 25.3516 4.94531 25.0547C4.64844 24.7578 4.5 24.4063 4.5 24C4.5 23.5937 4.64844 23.2422 4.94531 22.9453C5.24219 22.6484 5.59375 22.5 6 22.5H7.5C7.90625 22.5 8.25781 22.6484 8.55469 22.9453C8.85156 23.2422 9 23.5937 9 24C9 24.4063 8.85156 24.7578 8.55469 25.0547C8.25781 25.3516 7.90625 25.5 7.5 25.5H6ZM40.5 25.5C40.0937 25.5 39.7422 25.3516 39.4453 25.0547C39.1484 24.7578 39 24.4063 39 24C39 23.5937 39.1484 23.2422 39.4453 22.9453C39.7422 22.6484 40.0937 22.5 40.5 22.5H42C42.4063 22.5 42.7578 22.6484 43.0547 22.9453C43.3516 23.2422 43.5 23.5937 43.5 24C43.5 24.4063 43.3516 24.7578 43.0547 25.0547C42.7578 25.3516 42.4063 25.5 42 25.5H40.5ZM22.5 40.5V42C22.5 42.4063 22.6484 42.7578 22.9453 43.0547C23.2422 43.3516 23.5937 43.5 24 43.5C24.4063 43.5 24.7578 43.3516 25.0547 43.0547C25.3516 42.7578 25.5 42.4063 25.5 42V40.5C25.5 40.0937 25.3516 39.7422 25.0547 39.4453C24.7578 39.1484 24.4063 39 24 39C23.5937 39 23.2422 39.1484 22.9453 39.4453C22.6484 39.7422 22.5 40.0937 22.5 40.5ZM34.9453 34.9453C35.2422 34.6484 35.5937 34.5 36 34.5C36.4063 34.5 36.7578 34.6484 37.0547 34.9453L38.5547 36.4453C38.8516 36.7422 39 37.0937 39 37.5C39 37.9063 38.8516 38.2578 38.5547 38.5547C38.2578 38.8516 37.9063 39 37.5 39C37.0937 39 36.7422 38.8516 36.4453 38.5547L34.9453 37.0547C34.6484 36.7578 34.5 36.4063 34.5 36C34.5 35.5937 34.6484 35.2422 34.9453 34.9453ZM10.9453 34.9453L9.44531 36.4453C9.14844 36.7422 9 37.0937 9 37.5C9 37.9063 9.14844 38.2578 9.44531 38.5547C9.74219 38.8516 10.0937 39 10.5 39C10.9063 39 11.2578 38.8516 11.5547 38.5547L13.0547 37.0547C13.3516 36.7578 13.5 36.4063 13.5 36C13.5 35.5937 13.3516 35.2422 13.0547 34.9453C12.7578 34.6484 12.4063 34.5 12 34.5C11.5937 34.5 11.2422 34.6484 10.9453 34.9453Z" fill="white"/>
</svg>
