<svg width="48" height="48" viewBox="0 0 48 48" fill="none" xmlns="http://www.w3.org/2000/svg">
<path d="M24 9C22.3125 9 20.6484 9.16406 19.0078 9.49219C17.3672 9.82031 15.7656 10.3125 14.2031 10.9688C12.6406 11.625 11.1641 12.4219 9.77344 13.3594C8.38281 14.2969 7.08594 15.3672 5.88281 16.5703C5.28906 17.1641 4.75781 17.7813 4.28906 18.4219C3.82031 19.0625 3.32031 19.7031 2.78906 20.3438C2.60156 20.5625 2.42188 20.7266 2.25 20.8359C2.07812 20.9453 1.84375 21 1.54688 21C1.125 21 0.773438 20.8594 0.492188 20.5781C0.210938 20.2969 0.0625 19.9375 0.046875 19.5C0.046875 19.2031 0.132812 18.9219 0.304688 18.6563C1.53906 16.6875 3.03125 14.9219 4.78125 13.3594C6.53125 11.7969 8.45312 10.4688 10.5469 9.375C12.6406 8.28125 14.8203 7.44531 17.0859 6.86719C19.3516 6.28906 21.6562 6 24 6C26.2969 6 28.5938 6.28906 30.8906 6.86719C33.1875 7.44531 35.3672 8.28125 37.4297 9.375C39.4922 10.4688 41.4062 11.7969 43.1719 13.3594C44.9375 14.9219 46.4453 16.6875 47.6953 18.6563C47.8672 18.9219 47.9531 19.2031 47.9531 19.5C47.9531 19.9219 47.8125 20.2734 47.5312 20.5547C47.25 20.8359 46.8906 20.9844 46.4531 21C46.1875 21 45.9609 20.9453 45.7734 20.8359C45.5859 20.7266 45.3984 20.5625 45.2109 20.3438C45.0391 20.125 44.8828 19.9063 44.7422 19.6875C44.6016 19.4688 44.4375 19.2422 44.25 19.0078C43.9219 18.5703 43.5781 18.1563 43.2188 17.7656C42.8594 17.375 42.4922 16.9766 42.1172 16.5703C40.9141 15.3672 39.6172 14.2969 38.2266 13.3594C36.8359 12.4219 35.3672 11.6328 33.8203 10.9922C32.2734 10.3516 30.6719 9.85938 29.0156 9.51563C27.3594 9.17188 25.6875 9 24 9ZM24 18C22.8438 18 21.6953 18.125 20.5547 18.375C19.4141 18.625 18.3203 18.9844 17.2734 19.4531C16.2266 19.9219 15.2266 20.5078 14.2734 21.2109C13.3203 21.9141 12.4609 22.6875 11.6953 23.5313C11.3203 23.9531 10.9844 24.3984 10.6875 24.8672C10.3906 25.3359 10.0625 25.7969 9.70312 26.25C9.51562 26.4844 9.33594 26.6641 9.16406 26.7891C8.99219 26.9141 8.74219 26.9844 8.41406 27C8.00781 27 7.65625 26.8516 7.35938 26.5547C7.0625 26.2578 6.91406 25.9063 6.91406 25.5C6.91406 25.25 6.97656 25 7.10156 24.75C7.89844 23.2656 8.91406 21.9219 10.1484 20.7188C11.3828 19.5156 12.75 18.4922 14.25 17.6484C15.75 16.8047 17.3281 16.1563 18.9844 15.7031C20.6406 15.25 22.3125 15.0156 24 15C25.6562 15 27.3203 15.2266 28.9922 15.6797C30.6641 16.1328 32.25 16.7891 33.75 17.6484C35.25 18.5078 36.6172 19.5313 37.8516 20.7188C39.0859 21.9063 40.1016 23.25 40.8984 24.75C41.0234 25 41.0859 25.25 41.0859 25.5C41.0859 25.9063 40.9375 26.2578 40.6406 26.5547C40.3437 26.8516 39.9922 27 39.5859 27C39.2734 27 39.0313 26.9375 38.8594 26.8125C38.6875 26.6875 38.5 26.5 38.2969 26.25C37.9531 25.7969 37.6328 25.3359 37.3359 24.8672C37.0391 24.3984 36.6953 23.9531 36.3047 23.5313C35.5391 22.6719 34.6875 21.8984 33.75 21.2109C32.8125 20.5234 31.8125 19.9453 30.75 19.4766C29.6875 19.0078 28.5859 18.6406 27.4453 18.375C26.3047 18.1094 25.1562 17.9844 24 18ZM24 27C23.125 27 22.2891 27.1172 21.4922 27.3516C20.6953 27.5859 19.9219 27.9375 19.1719 28.4063C18.75 28.6719 18.3906 28.9375 18.0938 29.2031C17.7969 29.4688 17.5234 29.75 17.2734 30.0469C17.0234 30.3438 16.7891 30.6563 16.5703 30.9844C16.3516 31.3125 16.1172 31.6953 15.8672 32.1328C15.7109 32.3984 15.5234 32.6094 15.3047 32.7656C15.0859 32.9219 14.8203 33 14.5078 33C14.0859 33 13.7344 32.8516 13.4531 32.5547C13.1719 32.2578 13.0234 31.8984 13.0078 31.4766C13.0078 31.2734 13.0547 31.0625 13.1484 30.8438C13.6016 29.8438 14.2188 28.9219 15 28.0781C15.7812 27.2344 16.6563 26.5156 17.625 25.9219C18.5937 25.3281 19.625 24.8594 20.7188 24.5156C21.8125 24.1719 22.9062 24 24 24C25.125 24 26.2344 24.1641 27.3281 24.4922C28.4219 24.8203 29.4453 25.2813 30.3984 25.875C31.3516 26.4688 32.2188 27.1875 33 28.0313C33.7812 28.875 34.3984 29.8125 34.8516 30.8438C34.9453 31.0625 34.9922 31.2734 34.9922 31.4766C34.9922 31.8828 34.8438 32.2344 34.5469 32.5313C34.25 32.8281 33.8984 32.9844 33.4922 33C33.1797 33 32.9141 32.9219 32.6953 32.7656C32.4766 32.6094 32.2891 32.3984 32.1328 32.1328C31.8828 31.7109 31.6484 31.3359 31.4297 31.0078C31.2109 30.6797 30.9766 30.3594 30.7266 30.0469C30.4766 29.7344 30.2031 29.4531 29.9062 29.2031C29.6094 28.9531 29.2422 28.6875 28.8047 28.4063C28.0703 27.9531 27.3047 27.6094 26.5078 27.375C25.7109 27.1406 24.875 27.0156 24 27ZM20.25 36C20.25 35.4844 20.3516 35 20.5547 34.5469C20.7578 34.0938 21.0234 33.7031 21.3516 33.375C21.6797 33.0469 22.0781 32.7734 22.5469 32.5547C23.0156 32.3359 23.5 32.2344 24 32.25C24.5156 32.25 25 32.3516 25.4531 32.5547C25.9063 32.7578 26.2969 33.0234 26.625 33.3516C26.9531 33.6797 27.2266 34.0781 27.4453 34.5469C27.6641 35.0156 27.7656 35.5 27.75 36C27.75 36.5156 27.6484 37 27.4453 37.4531C27.2422 37.9063 26.9766 38.2969 26.6484 38.625C26.3203 38.9531 25.9219 39.2266 25.4531 39.4453C24.9844 39.6641 24.5 39.7656 24 39.75C23.4844 39.75 23 39.6484 22.5469 39.4453C22.0937 39.2422 21.7031 38.9766 21.375 38.6484C21.0469 38.3203 20.7734 37.9219 20.5547 37.4531C20.3359 36.9844 20.2344 36.5 20.25 36Z" fill="white"/>
</svg>
