# MagicaVoxel @ Ephtracy

# group
o 

# material
mtllib sputnik.mtl
usemtl palette

# normals
vn -1 0 0
vn 1 0 0
vn 0 0 1
vn 0 0 -1
vn 0 -1 0
vn 0 1 0

# texcoords
vt 0.220703 0.5
vt 0.283203 0.5
vt 0.287109 0.5
vt 0.314453 0.5
vt 0.345703 0.5
vt 0.380859 0.5
vt 0.408203 0.5
vt 0.501953 0.5

# verts
v -0.6 0 0
v -0.6 0 -0.1
v -0.6 1.5 0
v -0.6 1.5 -0.1
v -0.6 2.1 0
v -0.6 2.1 -0.1
v -0.6 3.6 0
v -0.6 3.6 -0.1
v -0.2 1.6 0.4
v -0.2 1.6 -0.5
v -0.2 1.7 0.3
v -0.2 1.7 0.2
v -0.2 1.7 0
v -0.2 1.7 -0.1
v -0.2 1.7 -0.3
v -0.2 1.7 -0.4
v -0.2 1.8 0.3
v -0.2 1.8 0.2
v -0.2 1.8 0
v -0.2 1.8 -0.1
v -0.2 1.8 -0.3
v -0.2 1.8 -0.4
v -0.2 1.9 0.4
v -0.2 1.9 -0.5
v -0.1 1.5 0.4
v -0.1 1.5 0.1
v -0.1 1.5 -0.2
v -0.1 1.5 -0.5
v -0.1 1.6 0.5
v -0.1 1.6 0.4
v -0.1 1.6 0.1
v -0.1 1.6 -0.2
v -0.1 1.6 -0.5
v -0.1 1.6 -0.6
v -0.1 1.7 0
v -0.1 1.7 -0.1
v -0.1 1.8 0
v -0.1 1.8 -0.1
v -0.1 1.9 0.5
v -0.1 1.9 0.4
v -0.1 1.9 -0.5
v -0.1 1.9 -0.6
v -0.1 2 0.4
v -0.1 2 -0.5
v -5.96046e-08 1.5 0
v -5.96046e-08 1.5 -0.1
v -5.96046e-08 1.6 0
v -5.96046e-08 1.6 -0.1
v -5.96046e-08 2 0
v -5.96046e-08 2 -0.1
v -5.96046e-08 2.1 0
v -5.96046e-08 2.1 -0.1
v 0.1 1.5 0
v 0.1 1.5 -0.1
v 0.1 1.6 0
v 0.1 1.6 -0.1
v 0.1 2 0
v 0.1 2 -0.1
v 0.1 2.1 0
v 0.1 2.1 -0.1
v 0.2 1.5 0.4
v 0.2 1.5 0.1
v 0.2 1.5 -0.2
v 0.2 1.5 -0.5
v 0.2 1.6 0.5
v 0.2 1.6 0.4
v 0.2 1.6 0.1
v 0.2 1.6 -0.2
v 0.2 1.6 -0.5
v 0.2 1.6 -0.6
v 0.2 1.9 0.5
v 0.2 1.9 0.4
v 0.2 1.9 -0.5
v 0.2 1.9 -0.6
v 0.2 2 0.4
v 0.2 2 -0.5
v 0.3 1.6 0.4
v 0.3 1.6 -0.5
v 0.3 1.7 0.3
v 0.3 1.7 0.2
v 0.3 1.7 -0.3
v 0.3 1.7 -0.4
v 0.3 1.8 0.3
v 0.3 1.8 0.2
v 0.3 1.8 -0.3
v 0.3 1.8 -0.4
v 0.3 1.9 0.4
v 0.3 1.9 -0.5
v 0.7 0 0
v 0.7 0 -0.1
v 0.7 1.5 0
v 0.7 1.5 -0.1
v 0.7 2.1 0
v 0.7 2.1 -0.1
v 0.7 3.6 0
v 0.7 3.6 -0.1
v -0.1 1.6 0.5
v -0.1 1.9 0.5
v -5.96046e-08 1.7 0.5
v -5.96046e-08 1.8 0.5
v 0.1 1.7 0.5
v 0.1 1.8 0.5
v 0.2 1.6 0.5
v 0.2 1.9 0.5
v -0.2 1.6 0.4
v -0.2 1.9 0.4
v -0.1 1.5 0.4
v -0.1 1.6 0.4
v -0.1 1.9 0.4
v -0.1 2 0.4
v 0.2 1.5 0.4
v 0.2 1.6 0.4
v 0.2 1.9 0.4
v 0.2 2 0.4
v 0.3 1.6 0.4
v 0.3 1.9 0.4
v -0.6 0 0
v -0.6 1.5 0
v -0.6 2.1 0
v -0.6 3.6 0
v -0.5 0.1 0
v -0.5 0.2 0
v -0.5 0.4 0
v -0.5 0.5 0
v -0.5 0.7 0
v -0.5 0.8 0
v -0.5 1 0
v -0.5 1.1 0
v -0.5 1.3 0
v -0.5 1.4 0
v -0.5 2.2 0
v -0.5 2.3 0
v -0.5 2.5 0
v -0.5 2.6 0
v -0.5 2.8 0
v -0.5 2.9 0
v -0.5 3.1 0
v -0.5 3.2 0
v -0.5 3.4 0
v -0.5 3.5 0
v -5.96046e-08 0.2 0
v -5.96046e-08 0.4 0
v -5.96046e-08 0.5 0
v -5.96046e-08 0.7 0
v -5.96046e-08 0.8 0
v -5.96046e-08 1 0
v -5.96046e-08 1.1 0
v -5.96046e-08 1.3 0
v -5.96046e-08 1.4 0
v -5.96046e-08 1.5 0
v -5.96046e-08 1.6 0
v -5.96046e-08 2 0
v -5.96046e-08 2.1 0
v -5.96046e-08 2.2 0
v -5.96046e-08 2.3 0
v -5.96046e-08 2.5 0
v -5.96046e-08 2.6 0
v -5.96046e-08 2.8 0
v -5.96046e-08 2.9 0
v -5.96046e-08 3.1 0
v -5.96046e-08 3.2 0
v -5.96046e-08 3.4 0
v 0.1 0.2 0
v 0.1 0.4 0
v 0.1 0.5 0
v 0.1 0.7 0
v 0.1 0.8 0
v 0.1 1 0
v 0.1 1.1 0
v 0.1 1.3 0
v 0.1 1.4 0
v 0.1 1.5 0
v 0.1 1.6 0
v 0.1 2 0
v 0.1 2.1 0
v 0.1 2.2 0
v 0.1 2.3 0
v 0.1 2.5 0
v 0.1 2.6 0
v 0.1 2.8 0
v 0.1 2.9 0
v 0.1 3.1 0
v 0.1 3.2 0
v 0.1 3.4 0
v 0.6 0.1 0
v 0.6 0.2 0
v 0.6 0.4 0
v 0.6 0.5 0
v 0.6 0.7 0
v 0.6 0.8 0
v 0.6 1 0
v 0.6 1.1 0
v 0.6 1.3 0
v 0.6 1.4 0
v 0.6 2.2 0
v 0.6 2.3 0
v 0.6 2.5 0
v 0.6 2.6 0
v 0.6 2.8 0
v 0.6 2.9 0
v 0.6 3.1 0
v 0.6 3.2 0
v 0.6 3.4 0
v 0.6 3.5 0
v 0.7 0 0
v 0.7 1.5 0
v 0.7 2.1 0
v 0.7 3.6 0
v -0.2 1.7 -0.1
v -0.2 1.8 -0.1
v -0.1 1.7 -0.1
v -0.1 1.8 -0.1
v -0.1 1.5 -0.2
v -0.1 1.6 -0.2
v 0.2 1.5 -0.2
v 0.2 1.6 -0.2
v -0.1 1.5 0.1
v -0.1 1.6 0.1
v 0.2 1.5 0.1
v 0.2 1.6 0.1
v -0.2 1.7 0
v -0.2 1.8 0
v -0.1 1.7 0
v -0.1 1.8 0
v -0.6 0 -0.1
v -0.6 1.5 -0.1
v -0.6 2.1 -0.1
v -0.6 3.6 -0.1
v -0.5 0.1 -0.1
v -0.5 0.2 -0.1
v -0.5 0.4 -0.1
v -0.5 0.5 -0.1
v -0.5 0.7 -0.1
v -0.5 0.8 -0.1
v -0.5 1 -0.1
v -0.5 1.1 -0.1
v -0.5 1.3 -0.1
v -0.5 1.4 -0.1
v -0.5 2.2 -0.1
v -0.5 2.3 -0.1
v -0.5 2.5 -0.1
v -0.5 2.6 -0.1
v -0.5 2.8 -0.1
v -0.5 2.9 -0.1
v -0.5 3.1 -0.1
v -0.5 3.2 -0.1
v -0.5 3.4 -0.1
v -0.5 3.5 -0.1
v -5.96046e-08 0.2 -0.1
v -5.96046e-08 0.4 -0.1
v -5.96046e-08 0.5 -0.1
v -5.96046e-08 0.7 -0.1
v -5.96046e-08 0.8 -0.1
v -5.96046e-08 1 -0.1
v -5.96046e-08 1.1 -0.1
v -5.96046e-08 1.3 -0.1
v -5.96046e-08 1.4 -0.1
v -5.96046e-08 1.5 -0.1
v -5.96046e-08 1.6 -0.1
v -5.96046e-08 2 -0.1
v -5.96046e-08 2.1 -0.1
v -5.96046e-08 2.2 -0.1
v -5.96046e-08 2.3 -0.1
v -5.96046e-08 2.5 -0.1
v -5.96046e-08 2.6 -0.1
v -5.96046e-08 2.8 -0.1
v -5.96046e-08 2.9 -0.1
v -5.96046e-08 3.1 -0.1
v -5.96046e-08 3.2 -0.1
v -5.96046e-08 3.4 -0.1
v 0.1 0.2 -0.1
v 0.1 0.4 -0.1
v 0.1 0.5 -0.1
v 0.1 0.7 -0.1
v 0.1 0.8 -0.1
v 0.1 1 -0.1
v 0.1 1.1 -0.1
v 0.1 1.3 -0.1
v 0.1 1.4 -0.1
v 0.1 1.5 -0.1
v 0.1 1.6 -0.1
v 0.1 2 -0.1
v 0.1 2.1 -0.1
v 0.1 2.2 -0.1
v 0.1 2.3 -0.1
v 0.1 2.5 -0.1
v 0.1 2.6 -0.1
v 0.1 2.8 -0.1
v 0.1 2.9 -0.1
v 0.1 3.1 -0.1
v 0.1 3.2 -0.1
v 0.1 3.4 -0.1
v 0.6 0.1 -0.1
v 0.6 0.2 -0.1
v 0.6 0.4 -0.1
v 0.6 0.5 -0.1
v 0.6 0.7 -0.1
v 0.6 0.8 -0.1
v 0.6 1 -0.1
v 0.6 1.1 -0.1
v 0.6 1.3 -0.1
v 0.6 1.4 -0.1
v 0.6 2.2 -0.1
v 0.6 2.3 -0.1
v 0.6 2.5 -0.1
v 0.6 2.6 -0.1
v 0.6 2.8 -0.1
v 0.6 2.9 -0.1
v 0.6 3.1 -0.1
v 0.6 3.2 -0.1
v 0.6 3.4 -0.1
v 0.6 3.5 -0.1
v 0.7 0 -0.1
v 0.7 1.5 -0.1
v 0.7 2.1 -0.1
v 0.7 3.6 -0.1
v -0.2 1.6 -0.5
v -0.2 1.9 -0.5
v -0.1 1.5 -0.5
v -0.1 1.6 -0.5
v -0.1 1.9 -0.5
v -0.1 2 -0.5
v 0.2 1.5 -0.5
v 0.2 1.6 -0.5
v 0.2 1.9 -0.5
v 0.2 2 -0.5
v 0.3 1.6 -0.5
v 0.3 1.9 -0.5
v -0.1 1.6 -0.6
v -0.1 1.9 -0.6
v -5.96046e-08 1.7 -0.6
v -5.96046e-08 1.8 -0.6
v 0.1 1.7 -0.6
v 0.1 1.8 -0.6
v 0.2 1.6 -0.6
v 0.2 1.9 -0.6
v -0.6 0 0
v 0.7 0 0
v -0.6 0 -0.1
v 0.7 0 -0.1
v -0.1 1.5 0.4
v 0.2 1.5 0.4
v -5.96046e-08 1.5 0.3
v 0.1 1.5 0.3
v -5.96046e-08 1.5 0.2
v 0.1 1.5 0.2
v -0.1 1.5 0.1
v 0.2 1.5 0.1
v -0.1 1.5 -0.2
v 0.2 1.5 -0.2
v -5.96046e-08 1.5 -0.3
v 0.1 1.5 -0.3
v -5.96046e-08 1.5 -0.4
v 0.1 1.5 -0.4
v -0.1 1.5 -0.5
v 0.2 1.5 -0.5
v -0.1 1.6 0.5
v 0.2 1.6 0.5
v -0.2 1.6 0.4
v -0.1 1.6 0.4
v 0.2 1.6 0.4
v 0.3 1.6 0.4
v -0.1 1.6 0.1
v 0.2 1.6 0.1
v -5.96046e-08 1.6 0
v 0.1 1.6 0
v -5.96046e-08 1.6 -0.1
v 0.1 1.6 -0.1
v -0.1 1.6 -0.2
v 0.2 1.6 -0.2
v -0.2 1.6 -0.5
v -0.1 1.6 -0.5
v 0.2 1.6 -0.5
v 0.3 1.6 -0.5
v -0.1 1.6 -0.6
v 0.2 1.6 -0.6
v -0.2 1.8 0
v -0.1 1.8 0
v -0.2 1.8 -0.1
v -0.1 1.8 -0.1
v -0.6 2.1 0
v -5.96046e-08 2.1 0
v 0.1 2.1 0
v 0.7 2.1 0
v -0.6 2.1 -0.1
v -5.96046e-08 2.1 -0.1
v 0.1 2.1 -0.1
v 0.7 2.1 -0.1
v -0.6 1.5 0
v -5.96046e-08 1.5 0
v 0.1 1.5 0
v 0.7 1.5 0
v -0.6 1.5 -0.1
v -5.96046e-08 1.5 -0.1
v 0.1 1.5 -0.1
v 0.7 1.5 -0.1
v -0.2 1.7 0
v -0.1 1.7 0
v -0.2 1.7 -0.1
v -0.1 1.7 -0.1
v -0.1 1.9 0.5
v 0.2 1.9 0.5
v -0.2 1.9 0.4
v -0.1 1.9 0.4
v 0.2 1.9 0.4
v 0.3 1.9 0.4
v -0.2 1.9 -0.5
v -0.1 1.9 -0.5
v 0.2 1.9 -0.5
v 0.3 1.9 -0.5
v -0.1 1.9 -0.6
v 0.2 1.9 -0.6
v -0.1 2 0.4
v 0.2 2 0.4
v -5.96046e-08 2 0.3
v 0.1 2 0.3
v -5.96046e-08 2 0.2
v 0.1 2 0.2
v -5.96046e-08 2 0
v 0.1 2 0
v -5.96046e-08 2 -0.1
v 0.1 2 -0.1
v -5.96046e-08 2 -0.3
v 0.1 2 -0.3
v -5.96046e-08 2 -0.4
v 0.1 2 -0.4
v -0.1 2 -0.5
v 0.2 2 -0.5
v -0.6 3.6 0
v 0.7 3.6 0
v -0.6 3.6 -0.1
v 0.7 3.6 -0.1

# faces
f 3/6/1 2/6/1 1/6/1
f 4/6/1 2/6/1 3/6/1
f 7/6/1 6/6/1 5/6/1
f 8/6/1 6/6/1 7/6/1
f 11/8/1 10/8/1 9/8/1
f 12/8/1 10/8/1 11/8/1
f 13/8/1 10/8/1 12/8/1
f 14/8/1 10/8/1 13/8/1
f 15/8/1 10/8/1 14/8/1
f 16/8/1 10/8/1 15/8/1
f 17/8/1 11/8/1 9/8/1
f 17/4/1 12/4/1 11/4/1
f 18/8/1 13/8/1 12/8/1
f 18/4/1 12/4/1 17/4/1
f 19/8/1 13/8/1 18/8/1
f 20/8/1 15/8/1 14/8/1
f 21/4/1 16/4/1 15/4/1
f 21/8/1 15/8/1 20/8/1
f 22/8/1 10/8/1 16/8/1
f 22/4/1 16/4/1 21/4/1
f 23/8/1 21/8/1 20/8/1
f 23/8/1 20/8/1 19/8/1
f 23/8/1 22/8/1 21/8/1
f 23/8/1 17/8/1 9/8/1
f 23/8/1 18/8/1 17/8/1
f 23/8/1 19/8/1 18/8/1
f 24/8/1 10/8/1 22/8/1
f 24/8/1 22/8/1 23/8/1
f 30/8/1 26/8/1 25/8/1
f 31/8/1 26/8/1 30/8/1
f 32/8/1 28/8/1 27/8/1
f 33/8/1 28/8/1 32/8/1
f 37/3/1 36/3/1 35/3/1
f 38/3/1 36/3/1 37/3/1
f 39/8/1 30/8/1 29/8/1
f 40/8/1 30/8/1 39/8/1
f 41/8/1 34/8/1 33/8/1
f 42/8/1 34/8/1 41/8/1
f 43/8/1 41/8/1 40/8/1
f 44/8/1 41/8/1 43/8/1
f 47/2/1 46/2/1 45/2/1
f 48/2/1 46/2/1 47/2/1
f 51/2/1 50/2/1 49/2/1
f 52/2/1 50/2/1 51/2/1
f 53/2/2 54/2/2 55/2/2
f 55/2/2 54/2/2 56/2/2
f 57/2/2 58/2/2 59/2/2
f 59/2/2 58/2/2 60/2/2
f 61/8/2 62/8/2 66/8/2
f 66/8/2 62/8/2 67/8/2
f 63/8/2 64/8/2 68/8/2
f 68/8/2 64/8/2 69/8/2
f 65/8/2 66/8/2 71/8/2
f 71/8/2 66/8/2 72/8/2
f 69/8/2 70/8/2 73/8/2
f 73/8/2 70/8/2 74/8/2
f 72/8/2 73/8/2 75/8/2
f 75/8/2 73/8/2 76/8/2
f 77/8/2 78/8/2 79/8/2
f 79/8/2 78/8/2 80/8/2
f 80/8/2 78/8/2 81/8/2
f 81/8/2 78/8/2 82/8/2
f 77/8/2 79/8/2 83/8/2
f 79/4/2 80/4/2 83/4/2
f 80/8/2 81/8/2 84/8/2
f 83/4/2 80/4/2 84/4/2
f 81/4/2 82/4/2 85/4/2
f 84/8/2 81/8/2 85/8/2
f 82/8/2 78/8/2 86/8/2
f 85/4/2 82/4/2 86/4/2
f 84/8/2 85/8/2 87/8/2
f 83/8/2 84/8/2 87/8/2
f 85/8/2 86/8/2 87/8/2
f 77/8/2 83/8/2 87/8/2
f 86/8/2 78/8/2 88/8/2
f 87/8/2 86/8/2 88/8/2
f 89/6/2 90/6/2 91/6/2
f 91/6/2 90/6/2 92/6/2
f 93/6/2 94/6/2 95/6/2
f 95/6/2 94/6/2 96/6/2
f 99/8/3 98/8/3 97/8/3
f 100/8/3 98/8/3 99/8/3
f 101/8/3 99/8/3 97/8/3
f 101/4/3 100/4/3 99/4/3
f 102/8/3 98/8/3 100/8/3
f 102/4/3 100/4/3 101/4/3
f 103/8/3 101/8/3 97/8/3
f 103/8/3 102/8/3 101/8/3
f 104/8/3 98/8/3 102/8/3
f 104/8/3 102/8/3 103/8/3
f 108/8/3 106/8/3 105/8/3
f 109/8/3 106/8/3 108/8/3
f 111/8/3 108/8/3 107/8/3
f 112/8/3 108/8/3 111/8/3
f 113/8/3 110/8/3 109/8/3
f 114/8/3 110/8/3 113/8/3
f 115/8/3 113/8/3 112/8/3
f 116/8/3 113/8/3 115/8/3
f 121/6/3 118/6/3 117/6/3
f 122/6/3 118/6/3 121/6/3
f 123/6/3 118/6/3 122/6/3
f 124/6/3 118/6/3 123/6/3
f 125/6/3 118/6/3 124/6/3
f 126/6/3 118/6/3 125/6/3
f 127/6/3 118/6/3 126/6/3
f 128/6/3 118/6/3 127/6/3
f 129/6/3 118/6/3 128/6/3
f 130/6/3 118/6/3 129/6/3
f 131/6/3 120/6/3 119/6/3
f 132/6/3 120/6/3 131/6/3
f 133/6/3 120/6/3 132/6/3
f 134/6/3 120/6/3 133/6/3
f 135/6/3 120/6/3 134/6/3
f 136/6/3 120/6/3 135/6/3
f 137/6/3 120/6/3 136/6/3
f 138/6/3 120/6/3 137/6/3
f 139/6/3 120/6/3 138/6/3
f 140/6/3 120/6/3 139/6/3
f 141/2/3 122/2/3 121/2/3
f 141/6/3 123/6/3 122/6/3
f 142/2/3 124/2/3 123/2/3
f 142/6/3 123/6/3 141/6/3
f 143/6/3 125/6/3 124/6/3
f 143/2/3 124/2/3 142/2/3
f 144/2/3 126/2/3 125/2/3
f 144/6/3 125/6/3 143/6/3
f 145/6/3 127/6/3 126/6/3
f 145/2/3 126/2/3 144/2/3
f 146/2/3 128/2/3 127/2/3
f 146/6/3 127/6/3 145/6/3
f 147/6/3 129/6/3 128/6/3
f 147/2/3 128/2/3 146/2/3
f 148/2/3 130/2/3 129/2/3
f 148/6/3 129/6/3 147/6/3
f 149/6/3 118/6/3 130/6/3
f 149/2/3 130/2/3 148/2/3
f 150/6/3 118/6/3 149/6/3
f 153/6/3 131/6/3 119/6/3
f 154/2/3 132/2/3 131/2/3
f 154/6/3 131/6/3 153/6/3
f 155/6/3 133/6/3 132/6/3
f 155/2/3 132/2/3 154/2/3
f 156/2/3 134/2/3 133/2/3
f 156/6/3 133/6/3 155/6/3
f 157/6/3 135/6/3 134/6/3
f 157/2/3 134/2/3 156/2/3
f 158/2/3 136/2/3 135/2/3
f 158/6/3 135/6/3 157/6/3
f 159/6/3 137/6/3 136/6/3
f 159/2/3 136/2/3 158/2/3
f 160/2/3 138/2/3 137/2/3
f 160/6/3 137/6/3 159/6/3
f 161/6/3 139/6/3 138/6/3
f 161/2/3 138/2/3 160/2/3
f 162/2/3 140/2/3 139/2/3
f 162/6/3 139/6/3 161/6/3
f 163/2/3 148/2/3 147/2/3
f 163/2/3 141/2/3 121/2/3
f 163/2/3 142/2/3 141/2/3
f 163/2/3 143/2/3 142/2/3
f 163/2/3 150/2/3 149/2/3
f 163/2/3 149/2/3 148/2/3
f 163/2/3 144/2/3 143/2/3
f 163/2/3 145/2/3 144/2/3
f 163/2/3 146/2/3 145/2/3
f 163/2/3 147/2/3 146/2/3
f 163/2/3 151/2/3 150/2/3
f 164/2/3 151/2/3 163/2/3
f 165/2/3 151/2/3 164/2/3
f 166/2/3 151/2/3 165/2/3
f 167/2/3 151/2/3 166/2/3
f 168/2/3 151/2/3 167/2/3
f 169/2/3 151/2/3 168/2/3
f 170/2/3 151/2/3 169/2/3
f 171/2/3 151/2/3 170/2/3
f 172/2/3 151/2/3 171/2/3
f 173/2/3 151/2/3 172/2/3
f 174/2/3 161/2/3 160/2/3
f 174/2/3 162/2/3 161/2/3
f 174/2/3 160/2/3 159/2/3
f 174/2/3 159/2/3 158/2/3
f 174/2/3 158/2/3 157/2/3
f 174/2/3 157/2/3 156/2/3
f 174/2/3 156/2/3 155/2/3
f 174/2/3 155/2/3 154/2/3
f 174/2/3 153/2/3 152/2/3
f 174/2/3 154/2/3 153/2/3
f 175/2/3 162/2/3 174/2/3
f 176/2/3 162/2/3 175/2/3
f 177/2/3 162/2/3 176/2/3
f 178/2/3 162/2/3 177/2/3
f 179/2/3 162/2/3 178/2/3
f 180/2/3 162/2/3 179/2/3
f 181/2/3 162/2/3 180/2/3
f 182/2/3 162/2/3 181/2/3
f 183/2/3 162/2/3 182/2/3
f 184/2/3 140/2/3 162/2/3
f 184/2/3 162/2/3 183/2/3
f 185/6/3 121/6/3 117/6/3
f 185/2/3 163/2/3 121/2/3
f 186/6/3 164/6/3 163/6/3
f 186/2/3 163/2/3 185/2/3
f 187/2/3 165/2/3 164/2/3
f 187/6/3 164/6/3 186/6/3
f 188/6/3 166/6/3 165/6/3
f 188/2/3 165/2/3 187/2/3
f 189/2/3 167/2/3 166/2/3
f 189/6/3 166/6/3 188/6/3
f 190/6/3 168/6/3 167/6/3
f 190/2/3 167/2/3 189/2/3
f 191/2/3 169/2/3 168/2/3
f 191/6/3 168/6/3 190/6/3
f 192/6/3 170/6/3 169/6/3
f 192/2/3 169/2/3 191/2/3
f 193/2/3 171/2/3 170/2/3
f 193/6/3 170/6/3 192/6/3
f 194/6/3 172/6/3 171/6/3
f 194/2/3 171/2/3 193/2/3
f 195/6/3 176/6/3 175/6/3
f 195/2/3 177/2/3 176/2/3
f 196/6/3 178/6/3 177/6/3
f 196/2/3 177/2/3 195/2/3
f 197/2/3 179/2/3 178/2/3
f 197/6/3 178/6/3 196/6/3
f 198/6/3 180/6/3 179/6/3
f 198/2/3 179/2/3 197/2/3
f 199/2/3 181/2/3 180/2/3
f 199/6/3 180/6/3 198/6/3
f 200/6/3 182/6/3 181/6/3
f 200/2/3 181/2/3 199/2/3
f 201/2/3 183/2/3 182/2/3
f 201/6/3 182/6/3 200/6/3
f 202/6/3 184/6/3 183/6/3
f 202/2/3 183/2/3 201/2/3
f 203/2/3 140/2/3 184/2/3
f 203/6/3 184/6/3 202/6/3
f 204/6/3 120/6/3 140/6/3
f 204/2/3 140/2/3 203/2/3
f 205/6/3 193/6/3 192/6/3
f 205/6/3 192/6/3 191/6/3
f 205/6/3 191/6/3 190/6/3
f 205/6/3 190/6/3 189/6/3
f 205/6/3 189/6/3 188/6/3
f 205/6/3 188/6/3 187/6/3
f 205/6/3 194/6/3 193/6/3
f 205/6/3 187/6/3 186/6/3
f 205/6/3 186/6/3 185/6/3
f 205/6/3 185/6/3 117/6/3
f 206/6/3 172/6/3 194/6/3
f 206/6/3 194/6/3 205/6/3
f 207/6/3 200/6/3 199/6/3
f 207/6/3 202/6/3 201/6/3
f 207/6/3 199/6/3 198/6/3
f 207/6/3 203/6/3 202/6/3
f 207/6/3 198/6/3 197/6/3
f 207/6/3 201/6/3 200/6/3
f 207/6/3 195/6/3 175/6/3
f 207/6/3 196/6/3 195/6/3
f 207/6/3 197/6/3 196/6/3
f 207/6/3 204/6/3 203/6/3
f 208/6/3 120/6/3 204/6/3
f 208/6/3 204/6/3 207/6/3
f 211/8/3 210/8/3 209/8/3
f 212/8/3 210/8/3 211/8/3
f 215/8/3 214/8/3 213/8/3
f 216/8/3 214/8/3 215/8/3
f 217/8/4 218/8/4 219/8/4
f 219/8/4 218/8/4 220/8/4
f 221/8/4 222/8/4 223/8/4
f 223/8/4 222/8/4 224/8/4
f 225/6/4 226/6/4 229/6/4
f 229/6/4 226/6/4 230/6/4
f 230/6/4 226/6/4 231/6/4
f 231/6/4 226/6/4 232/6/4
f 232/6/4 226/6/4 233/6/4
f 233/6/4 226/6/4 234/6/4
f 234/6/4 226/6/4 235/6/4
f 235/6/4 226/6/4 236/6/4
f 236/6/4 226/6/4 237/6/4
f 237/6/4 226/6/4 238/6/4
f 227/6/4 228/6/4 239/6/4
f 239/6/4 228/6/4 240/6/4
f 240/6/4 228/6/4 241/6/4
f 241/6/4 228/6/4 242/6/4
f 242/6/4 228/6/4 243/6/4
f 243/6/4 228/6/4 244/6/4
f 244/6/4 228/6/4 245/6/4
f 245/6/4 228/6/4 246/6/4
f 246/6/4 228/6/4 247/6/4
f 247/6/4 228/6/4 248/6/4
f 229/2/4 230/2/4 249/2/4
f 230/6/4 231/6/4 249/6/4
f 231/2/4 232/2/4 250/2/4
f 249/6/4 231/6/4 250/6/4
f 232/6/4 233/6/4 251/6/4
f 250/2/4 232/2/4 251/2/4
f 233/2/4 234/2/4 252/2/4
f 251/6/4 233/6/4 252/6/4
f 234/6/4 235/6/4 253/6/4
f 252/2/4 234/2/4 253/2/4
f 235/2/4 236/2/4 254/2/4
f 253/6/4 235/6/4 254/6/4
f 236/6/4 237/6/4 255/6/4
f 254/2/4 236/2/4 255/2/4
f 237/2/4 238/2/4 256/2/4
f 255/6/4 237/6/4 256/6/4
f 238/6/4 226/6/4 257/6/4
f 256/2/4 238/2/4 257/2/4
f 257/6/4 226/6/4 258/6/4
f 227/6/4 239/6/4 261/6/4
f 239/2/4 240/2/4 262/2/4
f 261/6/4 239/6/4 262/6/4
f 240/6/4 241/6/4 263/6/4
f 262/2/4 240/2/4 263/2/4
f 241/2/4 242/2/4 264/2/4
f 263/6/4 241/6/4 264/6/4
f 242/6/4 243/6/4 265/6/4
f 264/2/4 242/2/4 265/2/4
f 243/2/4 244/2/4 266/2/4
f 265/6/4 243/6/4 266/6/4
f 244/6/4 245/6/4 267/6/4
f 266/2/4 244/2/4 267/2/4
f 245/2/4 246/2/4 268/2/4
f 267/6/4 245/6/4 268/6/4
f 246/6/4 247/6/4 269/6/4
f 268/2/4 246/2/4 269/2/4
f 247/2/4 248/2/4 270/2/4
f 269/6/4 247/6/4 270/6/4
f 255/2/4 256/2/4 271/2/4
f 229/2/4 249/2/4 271/2/4
f 249/2/4 250/2/4 271/2/4
f 250/2/4 251/2/4 271/2/4
f 257/2/4 258/2/4 271/2/4
f 256/2/4 257/2/4 271/2/4
f 251/2/4 252/2/4 271/2/4
f 252/2/4 253/2/4 271/2/4
f 253/2/4 254/2/4 271/2/4
f 254/2/4 255/2/4 271/2/4
f 258/2/4 259/2/4 271/2/4
f 271/2/4 259/2/4 272/2/4
f 272/2/4 259/2/4 273/2/4
f 273/2/4 259/2/4 274/2/4
f 274/2/4 259/2/4 275/2/4
f 275/2/4 259/2/4 276/2/4
f 276/2/4 259/2/4 277/2/4
f 277/2/4 259/2/4 278/2/4
f 278/2/4 259/2/4 279/2/4
f 279/2/4 259/2/4 280/2/4
f 280/2/4 259/2/4 281/2/4
f 268/2/4 269/2/4 282/2/4
f 269/2/4 270/2/4 282/2/4
f 267/2/4 268/2/4 282/2/4
f 266/2/4 267/2/4 282/2/4
f 265/2/4 266/2/4 282/2/4
f 264/2/4 265/2/4 282/2/4
f 263/2/4 264/2/4 282/2/4
f 262/2/4 263/2/4 282/2/4
f 260/2/4 261/2/4 282/2/4
f 261/2/4 262/2/4 282/2/4
f 282/2/4 270/2/4 283/2/4
f 283/2/4 270/2/4 284/2/4
f 284/2/4 270/2/4 285/2/4
f 285/2/4 270/2/4 286/2/4
f 286/2/4 270/2/4 287/2/4
f 287/2/4 270/2/4 288/2/4
f 288/2/4 270/2/4 289/2/4
f 289/2/4 270/2/4 290/2/4
f 290/2/4 270/2/4 291/2/4
f 270/2/4 248/2/4 292/2/4
f 291/2/4 270/2/4 292/2/4
f 225/6/4 229/6/4 293/6/4
f 229/2/4 271/2/4 293/2/4
f 271/6/4 272/6/4 294/6/4
f 293/2/4 271/2/4 294/2/4
f 272/2/4 273/2/4 295/2/4
f 294/6/4 272/6/4 295/6/4
f 273/6/4 274/6/4 296/6/4
f 295/2/4 273/2/4 296/2/4
f 274/2/4 275/2/4 297/2/4
f 296/6/4 274/6/4 297/6/4
f 275/6/4 276/6/4 298/6/4
f 297/2/4 275/2/4 298/2/4
f 276/2/4 277/2/4 299/2/4
f 298/6/4 276/6/4 299/6/4
f 277/6/4 278/6/4 300/6/4
f 299/2/4 277/2/4 300/2/4
f 278/2/4 279/2/4 301/2/4
f 300/6/4 278/6/4 301/6/4
f 279/6/4 280/6/4 302/6/4
f 301/2/4 279/2/4 302/2/4
f 283/6/4 284/6/4 303/6/4
f 284/2/4 285/2/4 303/2/4
f 285/6/4 286/6/4 304/6/4
f 303/2/4 285/2/4 304/2/4
f 286/2/4 287/2/4 305/2/4
f 304/6/4 286/6/4 305/6/4
f 287/6/4 288/6/4 306/6/4
f 305/2/4 287/2/4 306/2/4
f 288/2/4 289/2/4 307/2/4
f 306/6/4 288/6/4 307/6/4
f 289/6/4 290/6/4 308/6/4
f 307/2/4 289/2/4 308/2/4
f 290/2/4 291/2/4 309/2/4
f 308/6/4 290/6/4 309/6/4
f 291/6/4 292/6/4 310/6/4
f 309/2/4 291/2/4 310/2/4
f 292/2/4 248/2/4 311/2/4
f 310/6/4 292/6/4 311/6/4
f 248/6/4 228/6/4 312/6/4
f 311/2/4 248/2/4 312/2/4
f 300/6/4 301/6/4 313/6/4
f 299/6/4 300/6/4 313/6/4
f 298/6/4 299/6/4 313/6/4
f 297/6/4 298/6/4 313/6/4
f 296/6/4 297/6/4 313/6/4
f 295/6/4 296/6/4 313/6/4
f 301/6/4 302/6/4 313/6/4
f 294/6/4 295/6/4 313/6/4
f 293/6/4 294/6/4 313/6/4
f 225/6/4 293/6/4 313/6/4
f 302/6/4 280/6/4 314/6/4
f 313/6/4 302/6/4 314/6/4
f 307/6/4 308/6/4 315/6/4
f 309/6/4 310/6/4 315/6/4
f 306/6/4 307/6/4 315/6/4
f 310/6/4 311/6/4 315/6/4
f 305/6/4 306/6/4 315/6/4
f 308/6/4 309/6/4 315/6/4
f 283/6/4 303/6/4 315/6/4
f 303/6/4 304/6/4 315/6/4
f 304/6/4 305/6/4 315/6/4
f 311/6/4 312/6/4 315/6/4
f 312/6/4 228/6/4 316/6/4
f 315/6/4 312/6/4 316/6/4
f 317/8/4 318/8/4 320/8/4
f 320/8/4 318/8/4 321/8/4
f 319/8/4 320/8/4 323/8/4
f 323/8/4 320/8/4 324/8/4
f 321/8/4 322/8/4 325/8/4
f 325/8/4 322/8/4 326/8/4
f 324/8/4 325/8/4 327/8/4
f 327/8/4 325/8/4 328/8/4
f 329/8/4 330/8/4 331/8/4
f 331/8/4 330/8/4 332/8/4
f 329/8/4 331/8/4 333/8/4
f 331/4/4 332/4/4 333/4/4
f 332/8/4 330/8/4 334/8/4
f 333/4/4 332/4/4 334/4/4
f 329/8/4 333/8/4 335/8/4
f 333/8/4 334/8/4 335/8/4
f 334/8/4 330/8/4 336/8/4
f 335/8/4 334/8/4 336/8/4
f 339/6/5 338/6/5 337/6/5
f 340/6/5 338/6/5 339/6/5
f 343/8/5 342/8/5 341/8/5
f 344/8/5 342/8/5 343/8/5
f 345/8/5 343/8/5 341/8/5
f 345/4/5 344/4/5 343/4/5
f 346/8/5 342/8/5 344/8/5
f 346/4/5 344/4/5 345/4/5
f 347/8/5 345/8/5 341/8/5
f 347/8/5 346/8/5 345/8/5
f 348/8/5 342/8/5 346/8/5
f 348/8/5 346/8/5 347/8/5
f 351/8/5 350/8/5 349/8/5
f 352/8/5 350/8/5 351/8/5
f 353/8/5 351/8/5 349/8/5
f 353/4/5 352/4/5 351/4/5
f 354/8/5 350/8/5 352/8/5
f 354/4/5 352/4/5 353/4/5
f 355/8/5 353/8/5 349/8/5
f 355/8/5 354/8/5 353/8/5
f 356/8/5 350/8/5 354/8/5
f 356/8/5 354/8/5 355/8/5
f 360/8/5 358/8/5 357/8/5
f 361/8/5 358/8/5 360/8/5
f 363/8/5 360/8/5 359/8/5
f 364/8/5 362/8/5 361/8/5
f 365/8/5 364/8/5 363/8/5
f 366/8/5 364/8/5 365/8/5
f 367/8/5 365/8/5 363/8/5
f 368/8/5 364/8/5 366/8/5
f 369/8/5 363/8/5 359/8/5
f 369/8/5 368/8/5 367/8/5
f 369/8/5 367/8/5 363/8/5
f 370/8/5 364/8/5 368/8/5
f 370/8/5 368/8/5 369/8/5
f 370/8/5 362/8/5 364/8/5
f 371/8/5 369/8/5 359/8/5
f 372/8/5 369/8/5 371/8/5
f 373/8/5 362/8/5 370/8/5
f 374/8/5 362/8/5 373/8/5
f 375/8/5 373/8/5 372/8/5
f 376/8/5 373/8/5 375/8/5
f 379/8/5 378/8/5 377/8/5
f 380/8/5 378/8/5 379/8/5
f 385/6/5 382/6/5 381/6/5
f 386/6/5 382/6/5 385/6/5
f 387/6/5 384/6/5 383/6/5
f 388/6/5 384/6/5 387/6/5
f 389/6/6 390/6/6 393/6/6
f 393/6/6 390/6/6 394/6/6
f 391/6/6 392/6/6 395/6/6
f 395/6/6 392/6/6 396/6/6
f 397/8/6 398/8/6 399/8/6
f 399/8/6 398/8/6 400/8/6
f 401/8/6 402/8/6 404/8/6
f 404/8/6 402/8/6 405/8/6
f 403/8/6 404/8/6 407/8/6
f 407/8/6 404/8/6 408/8/6
f 405/8/6 406/8/6 409/8/6
f 409/8/6 406/8/6 410/8/6
f 408/8/6 409/8/6 411/8/6
f 411/8/6 409/8/6 412/8/6
f 413/8/6 414/8/6 415/8/6
f 415/8/6 414/8/6 416/8/6
f 413/8/6 415/8/6 417/8/6
f 415/4/6 416/4/6 417/4/6
f 416/8/6 414/8/6 418/8/6
f 417/4/6 416/4/6 418/4/6
f 413/8/6 417/8/6 419/8/6
f 417/8/6 418/8/6 419/8/6
f 418/8/6 414/8/6 420/8/6
f 419/8/6 418/8/6 420/8/6
f 413/8/6 419/8/6 421/8/6
f 420/8/6 414/8/6 422/8/6
f 413/8/6 421/8/6 423/8/6
f 421/8/6 422/8/6 423/8/6
f 422/8/6 414/8/6 424/8/6
f 423/8/6 422/8/6 424/8/6
f 413/8/6 423/8/6 425/8/6
f 423/4/6 424/4/6 425/4/6
f 424/8/6 414/8/6 426/8/6
f 425/4/6 424/4/6 426/4/6
f 413/8/6 425/8/6 427/8/6
f 425/8/6 426/8/6 427/8/6
f 426/8/6 414/8/6 428/8/6
f 427/8/6 426/8/6 428/8/6
f 429/6/6 430/6/6 431/6/6
f 431/6/6 430/6/6 432/6/6
